<?xml version="1.0" standalone="no"?>
<!DOCTYPE svg PUBLIC "-//W3C//DTD SVG 20010904//EN"
 "http://www.w3.org/TR/2001/REC-SVG-20010904/DTD/svg10.dtd">
<svg version="1.0" xmlns="http://www.w3.org/2000/svg"
 width="1023.000000pt" height="1023.000000pt" viewBox="0 0 1023.000000 1023.000000"
 preserveAspectRatio="xMidYMid meet">
<metadata>
Created by potrace 1.11, written by Peter Selinger 2001-2013
</metadata>
<g transform="translate(0.000000,1023.000000) scale(0.100000,-0.100000)"
fill="#000000" stroke="none">
<path d="M9946 9993 c-25 -877 -149 -1678 -387 -2513 -81 -281 -234 -729 -324
-944 l-16 -38 -1535 1532 c-844 843 -1537 1531 -1539 1528 -3 -2 369 -1350
825 -2994 l830 -2989 83 -80 c46 -44 102 -93 125 -110 23 -16 56 -52 72 -80
17 -27 44 -70 60 -95 54 -84 80 -133 96 -178 8 -25 18 -50 22 -56 17 -27 34
-85 36 -126 2 -24 8 -46 15 -48 7 -2 11 -28 11 -67 0 -59 2 -65 29 -84 21 -15
36 -40 51 -87 20 -59 22 -80 17 -217 -4 -127 -8 -161 -27 -207 -12 -30 -33
-95 -47 -145 -13 -49 -29 -100 -35 -113 -15 -29 -6 -36 57 -51 28 -6 68 -19
90 -28 40 -17 125 -89 125 -106 0 -5 10 -26 23 -46 44 -70 47 -129 17 -299
-14 -80 -58 -134 -145 -177 -42 -21 -95 -38 -126 -42 -30 -3 -62 -10 -71 -14
-11 -6 -18 -5 -21 4 -3 8 -17 0 -38 -22 -19 -18 -28 -31 -21 -27 17 10 16 5
-18 -59 -16 -31 -30 -67 -30 -79 0 -12 -9 -38 -20 -59 -11 -20 -20 -45 -20
-56 0 -37 -30 -91 -60 -106 -65 -34 -157 -12 -216 52 -24 24 -40 33 -65 33
-47 0 -114 35 -154 82 -26 31 -38 39 -52 33 -44 -18 -109 -27 -263 -33 -145
-7 -169 -10 -195 -28 -17 -12 -49 -31 -72 -42 -22 -12 -62 -39 -87 -61 -55
-48 -103 -65 -168 -59 -66 7 -98 33 -127 104 l-24 59 -48 -47 c-52 -51 -93
-65 -155 -53 -53 9 -108 70 -124 136 -8 30 -24 63 -39 78 -65 65 -216 150
-234 132 -8 -8 -16 -6 -29 6 -20 18 -23 11 -7 -18 6 -11 17 -18 24 -15 8 3 27
-19 50 -59 20 -34 51 -78 69 -96 17 -19 39 -50 49 -69 10 -19 33 -45 51 -57
34 -22 86 -110 86 -146 0 -33 -39 -85 -72 -96 -47 -17 -99 -13 -135 9 -37 22
-91 92 -100 129 -7 28 -35 58 -112 117 -28 21 -51 41 -51 45 0 15 -96 147
-136 187 -42 41 -67 52 -78 33 -9 -14 -113 -44 -130 -38 -9 4 -18 2 -21 -3 -3
-5 -23 -14 -43 -19 -55 -15 -111 1 -149 43 -37 40 -41 69 -20 151 11 43 18 52
45 61 36 11 112 70 112 86 0 5 -16 28 -35 51 -20 22 -52 75 -72 116 -34 70
-36 82 -34 155 2 74 6 87 52 175 l49 95 0 114 c0 218 31 310 119 354 50 24 57
34 83 100 45 116 59 165 59 198 0 19 -27 130 -59 245 l-59 210 -1229 3 -1230
2 -260 -887 -260 -888 -471 0 -470 0 399 -404 c219 -223 395 -408 391 -412
-18 -17 -556 -129 -836 -174 -441 -71 -1068 -125 -1454 -125 l-113 0 0 -137 0
-138 5115 0 5115 0 0 5113 0 5112 -138 0 -139 0 -7 -237z"/>
<path d="M4443 6848 c-107 -140 -242 -300 -359 -425 l-105 -113 -124 -427
c-385 -1327 -543 -1878 -541 -1880 2 -2 451 -2 998 -1 l995 3 -203 760 c-112
418 -287 1075 -390 1460 -103 385 -190 704 -194 708 -4 4 -38 -34 -77 -85z"/>
<path d="M5767 4003 c-17 -16 -4 -31 34 -37 49 -8 54 -5 39 23 -10 20 -58 30
-73 14z"/>
<path d="M5875 3931 c-3 -5 1 -29 9 -53 16 -48 27 -148 17 -148 -4 0 -15 23
-25 50 -10 28 -36 69 -57 92 -32 34 -45 42 -86 45 -43 4 -51 2 -76 -25 -30
-31 -46 -82 -47 -144 0 -47 39 -156 71 -197 22 -28 28 -31 67 -26 24 3 53 12
65 20 12 8 30 15 41 15 30 0 -40 -66 -92 -86 -48 -18 -51 -37 -6 -42 67 -7
173 73 194 145 22 75 22 173 1 251 -23 87 -57 133 -76 103z m-107 -113 c6 -7
13 -29 17 -49 7 -36 6 -37 -32 -42 -57 -7 -89 35 -63 84 12 22 62 26 78 7z"/>
<path d="M7489 3913 c-1 -4 0 -18 1 -31 1 -13 -4 -29 -10 -37 -10 -11 -14 -11
-29 4 -10 10 -39 26 -65 36 -41 16 -54 16 -104 6 -86 -19 -141 -41 -151 -60
-6 -9 -28 -39 -50 -66 -88 -106 -92 -239 -12 -379 55 -96 166 -147 274 -127
99 18 168 77 212 180 l22 52 29 -28 c16 -16 40 -42 54 -59 32 -36 121 -114
132 -114 12 0 10 14 -6 35 -8 11 -12 25 -9 32 3 7 -6 17 -21 22 -14 6 -36 26
-48 45 -13 20 -29 36 -35 36 -7 0 -13 11 -13 24 0 14 -10 30 -25 40 -18 12
-24 23 -20 36 4 13 -1 22 -15 30 -12 6 -20 21 -20 36 0 13 -7 41 -15 60 -12
29 -12 39 -2 52 14 20 43 27 52 12 3 -5 13 -10 21 -10 15 0 8 19 -27 67 -24
32 -119 117 -120 106z m-108 -86 c47 -28 113 -87 106 -93 -3 -3 -22 -1 -44 5
-64 18 -106 13 -173 -21 -51 -27 -68 -42 -88 -78 -44 -83 -18 -156 72 -202 59
-30 168 -23 217 15 20 15 39 27 42 27 4 0 7 -14 7 -31 0 -44 -60 -113 -116
-135 -92 -35 -228 18 -286 111 -59 94 -61 186 -8 298 35 75 42 82 107 107 67
25 120 25 164 -3z m17 -159 c7 -10 -2 -23 -34 -51 -37 -33 -49 -38 -74 -32
-43 9 -55 37 -27 62 12 11 29 23 37 26 28 10 88 7 98 -5z"/>
<path d="M7730 3630 c0 -35 22 -86 45 -103 14 -10 25 -15 25 -12 0 7 -45 94
-59 115 -10 13 -11 13 -11 0z"/>
<path d="M7600 3620 c0 -5 5 -10 11 -10 5 0 7 5 4 10 -3 6 -8 10 -11 10 -2 0
-4 -4 -4 -10z"/>
<path d="M7790 3496 c0 -2 7 -20 16 -41 8 -21 13 -47 11 -59 -6 -26 24 -80 47
-84 14 -3 16 0 8 15 -5 10 -13 38 -17 62 -8 46 -40 111 -56 111 -5 0 -9 -2 -9
-4z"/>
<path d="M5695 3390 c-9 -15 -7 -17 43 -25 27 -4 42 -3 42 4 0 13 -8 17 -47
25 -19 5 -34 3 -38 -4z"/>
<path d="M5944 2972 c10 -16 273 -143 339 -162 34 -11 66 -2 45 11 -7 5 -21 9
-31 9 -9 0 -64 23 -122 50 -58 28 -109 50 -114 50 -6 0 -25 9 -43 19 -41 24
-83 37 -74 23z"/>
<path d="M5760 2962 c0 -5 7 -13 16 -16 10 -4 14 -1 12 6 -5 15 -28 23 -28 10z"/>
<path d="M5760 2856 c0 -9 5 -16 10 -16 6 0 10 4 10 9 0 6 -4 13 -10 16 -5 3
-10 -1 -10 -9z"/>
<path d="M7570 2843 c-55 -29 -82 -61 -42 -51 12 3 22 2 24 -3 3 -10 118 62
118 74 0 16 -49 6 -100 -20z"/>
<path d="M5810 2793 c0 -23 15 -39 24 -25 3 5 -1 18 -9 28 -14 18 -14 18 -15
-3z"/>
<path d="M6460 2782 c0 -20 30 -33 91 -37 137 -10 289 -12 283 -4 -3 5 -24 9
-47 9 -46 0 -261 26 -301 36 -15 3 -26 2 -26 -4z"/>
<path d="M6210 2735 c-10 -13 -9 -15 9 -15 11 0 21 4 21 9 0 18 -18 21 -30 6z"/>
<path d="M7890 2630 c0 -22 -29 -38 -89 -49 -19 -3 -36 -11 -38 -18 -4 -10 41
-1 117 25 8 2 23 6 32 7 24 2 36 15 15 15 -9 0 -17 6 -17 14 0 8 -4 18 -10 21
-5 3 -10 -3 -10 -15z"/>
<path d="M5980 2532 c0 -12 34 -42 48 -42 6 0 1 11 -12 25 -24 26 -36 31 -36
17z"/>
<path d="M7226 2354 c-10 -26 -7 -32 14 -27 11 3 20 14 20 24 0 23 -25 25 -34
3z"/>
<path d="M7113 2155 c-9 -25 4 -29 17 -6 7 15 7 21 0 21 -6 0 -13 -7 -17 -15z"/>
<path d="M7788 2121 c-18 -16 -30 -32 -26 -36 3 -4 24 9 45 29 45 42 28 49
-19 7z"/>
<path d="M5820 2092 c0 -28 24 -72 34 -62 2 3 2 24 -1 48 -6 48 -33 60 -33 14z"/>
<path d="M5840 1980 c0 -18 4 -29 10 -25 6 3 10 15 10 25 0 10 -4 22 -10 25
-6 4 -10 -7 -10 -25z"/>
<path d="M5822 1643 c-13 -42 -9 -51 13 -33 16 13 21 70 7 70 -5 0 -14 -17
-20 -37z"/>
<path d="M6695 1363 c-37 -9 -47 -24 -28 -39 10 -7 16 -14 13 -14 -3 0 -32 -5
-65 -10 -33 -6 -122 -11 -197 -11 -76 -1 -138 -5 -138 -9 0 -5 19 -23 43 -41
23 -18 65 -53 93 -78 82 -73 84 -74 84 -57 0 8 17 36 39 63 31 40 51 54 101
72 40 15 75 21 95 18 20 -3 41 0 53 8 11 8 38 17 62 21 26 4 37 10 29 15 -10
6 -10 11 2 25 13 16 9 17 -69 12 -71 -5 -82 -4 -80 9 3 18 -8 23 -37 16z"/>
<path d="M5481 1336 c-13 -13 -21 -32 -19 -42 2 -13 6 -11 18 12 8 16 22 34
30 41 8 7 10 13 4 13 -6 0 -21 -11 -33 -24z"/>
<path d="M7085 1340 c-14 -6 -4 -9 34 -9 30 -1 52 1 50 3 -11 9 -66 13 -84 6z"/>
<path d="M5570 1257 c9 -28 22 -53 28 -55 15 -5 16 24 2 33 -5 3 -10 16 -10
28 0 12 -8 27 -18 34 -18 11 -18 9 -2 -40z"/>
<path d="M7633 1050 c-27 -47 -12 -66 21 -27 11 14 30 27 40 29 11 2 21 8 23
14 2 7 -6 10 -22 7 -15 -3 -25 -1 -25 6 0 22 -15 10 -37 -29z"/>
<path d="M6620 906 c0 -8 5 -18 10 -21 6 -3 10 1 10 9 0 8 -4 18 -10 21 -5 3
-10 -1 -10 -9z"/>
<path d="M7411 909 c-40 -16 -18 -19 34 -4 40 11 44 13 20 13 -16 1 -41 -4
-54 -9z"/>
</g>
</svg>
