<?xml version="1.0" standalone="no"?>
<!DOCTYPE svg PUBLIC "-//W3C//DTD SVG 20010904//EN"
 "http://www.w3.org/TR/2001/REC-SVG-20010904/DTD/svg10.dtd">
<svg version="1.0" xmlns="http://www.w3.org/2000/svg"
 width="1025.000000pt" height="1025.000000pt" viewBox="0 0 1025.000000 1025.000000"
 preserveAspectRatio="xMidYMid meet">
<metadata>
Created by potrace 1.11, written by Peter Selinger 2001-2013
</metadata>
<g transform="translate(0.000000,1025.000000) scale(0.100000,-0.100000)"
fill="#000000" stroke="none">
<path d="M5 5128 l1 -5122 5122 -1 5122 0 0 5123 0 5122 -5122 0 -5123 0 0
-5122z m5805 3915 c0 -4 75 -410 166 -902 151 -816 164 -899 154 -940 -24 -97
-81 -168 -124 -155 -26 8 -45 33 -46 58 0 32 -42 95 -82 122 -21 15 -57 29
-82 31 l-45 5 -11 52 c-27 135 -29 179 -9 239 27 81 22 244 -9 304 -44 85
-103 106 -200 74 -34 -12 -79 -21 -101 -21 -22 0 -62 -5 -89 -11 -45 -11 -53
-10 -79 9 -16 11 -46 51 -68 88 -62 106 -92 142 -134 164 -90 45 -268 10 -388
-76 -21 -15 -22 -14 -37 14 -31 60 -131 79 -216 41 -25 -11 -66 -41 -92 -66
-26 -26 -51 -44 -54 -40 -4 3 35 234 86 512 l94 505 683 0 c376 0 683 -3 683
-7z m-779 -931 c27 -15 35 -26 113 -156 64 -108 72 -112 222 -100 99 8 175
-11 251 -63 96 -65 113 -121 78 -258 -24 -94 -16 -189 33 -390 67 -272 69
-292 82 -844 l11 -462 -55 -108 c-85 -167 -166 -435 -138 -463 20 -20 40 0 52
54 24 101 73 243 115 335 72 153 206 346 268 384 41 25 97 25 129 -1 81 -63
110 -325 63 -555 -15 -71 -55 -217 -70 -257 -4 -10 -3 -18 3 -18 15 0 79 137
104 225 20 71 23 102 23 270 0 226 -13 281 -79 351 -39 40 -107 71 -129 57 -5
-3 7 18 27 47 20 29 36 58 36 66 0 32 -25 22 -72 -30 -53 -59 -107 -96 -187
-126 l-48 -19 -7 82 c-3 45 -6 145 -6 222 l1 140 38 18 c75 34 221 217 221
276 0 19 -27 12 -44 -11 -16 -22 -17 -21 -12 29 5 56 -6 77 -23 44 -14 -25
-14 -67 -1 -91 5 -10 7 -25 4 -33 -5 -14 -10 -14 -41 0 -47 19 -108 7 -108
-22 0 -18 6 -20 58 -17 33 2 57 0 57 -6 0 -12 -83 -95 -122 -124 -20 -14 -28
-16 -28 -6 -5 179 -24 356 -53 496 -37 178 -37 178 33 142 42 -21 61 -49 79
-117 30 -112 167 -110 220 2 12 25 21 55 22 67 0 13 2 19 5 13 4 -11 74 -384
74 -397 0 -4 -11 -8 -25 -8 -29 0 -45 -28 -24 -41 8 -5 24 -9 36 -9 15 0 24
-7 28 -22 25 -113 26 -103 -25 -255 -27 -79 -45 -143 -39 -143 5 0 12 7 15 15
12 30 104 -10 104 -46 0 -11 -10 -48 -21 -82 -23 -66 -17 -111 16 -123 21 -8
32 3 17 18 -17 17 -14 56 7 103 l18 40 7 -53 c4 -31 2 -60 -4 -71 -13 -26 -13
-28 8 -33 14 -4 24 -43 55 -216 l39 -210 -85 -174 c-47 -95 -122 -254 -168
-353 -111 -245 -222 -466 -277 -550 -83 -129 -205 -225 -285 -225 l-35 0 -12
86 c-12 84 -11 90 19 213 30 123 60 310 61 380 0 81 121 405 202 544 22 38 38
71 35 73 -15 15 -178 -273 -222 -391 -14 -39 -30 -79 -35 -90 -5 -11 -14 -54
-20 -95 -25 -166 -63 -375 -69 -382 -11 -12 -202 1374 -191 1387 21 25 33 419
21 668 -18 363 -30 333 -30 -78 -1 -198 -4 -391 -8 -430 -6 -66 -10 -45 -63
330 -50 356 -55 404 -44 437 13 36 4 61 -12 36 -5 -7 -22 79 -39 197 l-30 210
-26 3 c-21 2 -28 -2 -32 -20 -3 -13 -76 -526 -163 -1140 -120 -850 -162 -1118
-172 -1118 -10 0 -12 -11 -7 -44 7 -45 -12 -225 -25 -239 -4 -5 -31 28 -59 73
-205 319 -234 578 -142 1260 33 240 42 372 32 444 -9 66 -50 172 -83 215 -10
13 -18 41 -18 62 0 21 -6 68 -14 106 -21 98 -30 205 -22 257 7 44 9 46 40 46
77 0 181 109 224 234 24 70 37 154 29 188 -6 23 -8 23 -118 20 l-112 -4 28 48
c82 143 170 241 254 284 92 47 203 56 262 22z m-453 -12 c20 -12 32 -28 32
-41 0 -25 -59 -108 -76 -109 -7 0 -48 -18 -93 -41 -90 -45 -169 -114 -220
-194 -23 -36 -31 -43 -28 -25 3 14 16 82 28 152 23 127 23 128 54 138 17 6 51
31 76 56 77 80 161 104 227 64z m1063 -200 c19 -11 49 -63 64 -108 6 -20 1
-18 -33 15 -22 21 -63 50 -92 63 -41 19 -48 26 -33 31 27 11 72 10 94 -1z
m-1170 -68 c-17 -34 -28 -68 -25 -76 3 -8 -3 -19 -15 -26 -12 -6 -31 -30 -43
-53 -18 -34 -22 -58 -22 -132 0 -60 5 -102 16 -126 9 -20 14 -47 11 -60 l-4
-25 -68 33 c-67 32 -131 90 -131 119 0 8 -7 17 -15 20 -21 8 -19 35 3 40 9 3
35 39 56 81 44 85 135 188 210 239 28 18 52 32 54 30 2 -2 -10 -31 -27 -64z
m193 -149 c-18 -128 -75 -244 -138 -283 -46 -28 -54 -26 -76 23 -24 51 -25 67
-5 67 25 0 77 29 113 63 34 33 70 126 56 148 -8 13 13 29 39 29 16 0 17 -6 11
-47z m-84 14 c0 -33 -41 -108 -70 -129 -14 -10 -40 -21 -59 -24 l-34 -7 7 53
c11 81 38 110 116 123 14 2 28 5 33 6 4 0 7 -9 7 -22z m-407 -292 c12 -14 60
-44 107 -68 72 -35 85 -46 88 -69 2 -20 -5 -32 -33 -54 -53 -40 -64 -34 -168
107 -27 35 -33 52 -29 77 2 18 6 32 9 32 2 0 14 -11 26 -25z m4 -179 c53 -75
127 -106 184 -76 10 6 19 7 19 2 0 -10 -227 -103 -251 -102 -8 0 -23 6 -33 13
-17 12 -17 18 3 120 12 60 21 111 21 115 1 8 9 -3 57 -72z m221 -203 c8 -43
16 -95 19 -116 l6 -37 -34 7 c-52 12 -249 8 -298 -6 -23 -7 -45 -11 -46 -9 -2
2 1 34 8 71 l11 67 38 0 c38 0 161 43 228 80 19 10 40 19 45 20 6 0 16 -35 23
-77z m4 -200 c46 -5 46 -5 80 -77 33 -70 33 -73 32 -206 -1 -87 -11 -201 -28
-320 -53 -372 -58 -443 -53 -655 4 -172 9 -214 31 -305 33 -128 100 -272 190
-404 l67 -99 -22 -162 -23 -162 -125 -75 c-69 -42 -187 -108 -261 -148 -405
-217 -441 -239 -564 -339 -82 -66 -173 -177 -211 -257 -23 -49 -25 -58 -13
-71 21 -20 39 -8 75 50 109 178 266 304 638 509 165 91 341 195 426 251 l26
17 -33 -227 c-19 -126 -34 -234 -34 -241 0 -17 -484 -256 -584 -288 -60 -19
-108 -27 -186 -29 -58 -2 -109 -4 -113 -4 -5 -1 -7 -11 -5 -23 4 -32 65 -50
155 -46 39 2 69 0 67 -4 -3 -5 -24 -9 -47 -9 -66 -2 -101 -13 -105 -32 -4 -21
23 -22 98 -3 30 8 56 14 57 13 0 -1 24 -56 53 -122 28 -66 90 -194 137 -285
47 -91 127 -246 178 -345 l92 -180 -35 -237 c-20 -131 -39 -238 -42 -238 -11
0 -172 226 -260 364 -254 401 -423 737 -502 998 -26 87 -44 103 -33 31 18
-124 112 -387 203 -568 97 -195 167 -303 441 -685 61 -85 111 -160 111 -166 0
-16 -366 -199 -456 -227 -44 -14 -103 -28 -131 -32 l-53 -7 0 42 c0 67 22 100
104 152 75 47 136 114 136 150 0 34 -20 59 -63 79 -88 39 -145 19 -244 -89
l-71 -77 -64 0 c-83 1 -162 37 -208 94 -20 25 -40 39 -48 36 -9 -3 -12 1 -8
13 3 9 15 71 27 137 20 105 23 116 32 91 6 -19 6 -52 -2 -97 -14 -85 -14 -139
-1 -139 6 0 12 6 14 13 44 170 48 237 15 294 l-22 38 392 2125 c216 1169 394
2133 397 2142 3 12 27 22 77 32 122 26 156 27 299 9z m1899 -438 l15 -84 -20
15 c-11 8 -35 14 -52 14 l-32 0 31 74 c18 41 34 72 37 69 3 -2 12 -42 21 -88z
m-368 -387 c-12 -13 -33 -41 -47 -62 l-26 -39 0 50 0 50 43 10 c23 6 44 11 46
12 3 0 -5 -9 -16 -21z m922 -2614 c217 -1176 397 -2149 400 -2161 l5 -23 -599
0 -598 0 -6 28 c-2 15 -51 332 -108 704 l-104 678 -719 2 -720 3 -87 185
c-199 420 -294 613 -324 659 -18 27 -30 53 -26 58 3 6 31 18 61 28 30 10 166
73 302 141 137 68 249 124 251 124 3 0 -26 -218 -37 -282 l-5 -28 584 0 585 0
-5 23 c-2 12 -25 168 -50 347 -25 179 -48 337 -51 353 -5 22 -2 27 15 27 37 0
120 37 171 76 60 45 132 134 188 229 39 66 277 563 384 799 49 110 87 180 94
173 2 -2 181 -966 399 -2143z m-3037 -1230 c12 -8 22 -24 22 -34 0 -27 -60
-82 -130 -119 -96 -52 -116 -85 -110 -188 1 -31 0 -33 -32 -33 -44 0 -130 25
-192 57 -52 27 -76 25 -76 -7 0 -25 56 -63 136 -92 88 -32 229 -29 349 6 111
33 254 103 404 196 63 39 116 68 119 65 6 -6 -18 -210 -27 -222 -6 -8 -311
-126 -521 -200 -105 -38 -218 -51 -288 -35 -34 8 -46 7 -57 -4 -52 -52 120
-84 258 -48 42 11 63 12 65 5 2 -6 29 -11 62 -11 48 0 64 5 89 25 16 14 31 35
33 47 2 18 33 34 171 91 93 38 171 67 174 63 3 -3 -11 -117 -31 -253 -20 -136
-36 -251 -36 -255 0 -5 -270 -8 -600 -8 -473 0 -600 3 -600 13 0 6 18 114 41
238 l42 226 25 -5 c14 -3 77 -31 141 -63 116 -59 146 -69 139 -46 -7 21 -149
111 -224 143 l-70 29 35 191 35 192 21 -31 c42 -64 148 -110 255 -111 73 0
109 20 171 100 28 35 63 71 78 79 35 19 101 19 129 -1z m42 -609 c-14 -8 -34
-14 -45 -14 -15 0 -13 3 10 14 40 18 67 18 35 0z"/>
<path d="M5327 7766 c-8 -19 10 -91 34 -137 23 -47 93 -119 113 -119 31 0 26
22 -13 60 -41 40 -78 104 -100 173 -13 38 -25 47 -34 23z"/>
<path d="M4925 7583 c-10 -72 -43 -161 -76 -210 -37 -53 -88 -89 -156 -109
-68 -20 -70 -38 -3 -32 134 13 240 149 256 328 8 81 -9 99 -21 23z"/>
<path d="M5445 6959 c12 -37 45 -203 45 -226 0 -13 5 -23 10 -23 15 0 12 65
-5 140 -22 93 -35 130 -46 130 -6 0 -7 -9 -4 -21z"/>
</g>
</svg>
