<?xml version="1.0" encoding="UTF-8"?>
<!DOCTYPE svg PUBLIC "-//W3C//DTD SVG 1.1//EN" "http://www.w3.org/Graphics/SVG/1.1/DTD/svg11.dtd">
<!-- Creator: CorelDRAW X8 -->
<svg xmlns="http://www.w3.org/2000/svg" xml:space="preserve" width="1000px" height="900px" version="1.1" style="shape-rendering:geometricPrecision; text-rendering:geometricPrecision; image-rendering:optimizeQuality; fill-rule:evenodd; clip-rule:evenodd"
viewBox="0 0 1000 900"
 xmlns:xlink="http://www.w3.org/1999/xlink">
 <defs>
  <style type="text/css">
   <![CDATA[
    .str0 {stroke:#388036;stroke-width:3.50277;stroke-linecap:square;stroke-linejoin:bevel}
    .fil0 {fill:none}
    .fil1 {fill:#4DAF4A}
   ]]>
  </style>
 </defs>
 <g id="Capa_x0020_1">
  <metadata id="CorelCorpID_0Corel-Layer"/>
  <rect class="fil0" width="1000" height="900"/>
  <polygon class="fil1 str0" points="624,421 628,466 638,474 635,551 625,558 608,631 598,654 646,620 659,571 668,562 670,543 685,533 699,533 706,537 711,542 717,544 722,542 727,541 735,537 752,542 766,544 790,535 807,532 819,542 837,549 849,555 863,572 877,586 885,584 895,567 905,548 958,548 958,667 959,685 957,717 958,737 960,754 954,770 947,785 936,797 926,815 909,820 892,820 880,823 871,832 846,845 839,862 823,875 805,864 789,850 774,841 758,834 746,845 741,866 726,873 713,868 700,866 682,857 673,848 667,842 656,833 640,835 625,842 611,847 600,832 578,832 573,822 563,821 564,814 577,805 579,709 550,667 548,633 582,570 605,545 593,497 584,489 586,455 600,436 "/>
 </g>
</svg>
