<?xml version="1.0" encoding="UTF-8"?>
<!DOCTYPE svg PUBLIC "-//W3C//DTD SVG 1.1//EN" "http://www.w3.org/Graphics/SVG/1.1/DTD/svg11.dtd">
<!-- Creator: CorelDRAW X8 -->
<svg xmlns="http://www.w3.org/2000/svg" xml:space="preserve" width="1000px" height="900px" version="1.1" style="shape-rendering:geometricPrecision; text-rendering:geometricPrecision; image-rendering:optimizeQuality; fill-rule:evenodd; clip-rule:evenodd"
viewBox="0 0 1000 900"
 xmlns:xlink="http://www.w3.org/1999/xlink">
 <defs>
  <style type="text/css">
   <![CDATA[
    .str0 {stroke:#388036;stroke-width:3.50277;stroke-linecap:square;stroke-linejoin:bevel}
    .fil0 {fill:none}
    .fil1 {fill:#4DAF4A}
   ]]>
  </style>
 </defs>
 <g id="Capa_x0020_1">
  <metadata id="CorelCorpID_0Corel-Layer"/>
  <rect class="fil0" width="1000" height="900"/>
  <polygon class="fil1 str0" points="338,24 341,24 348,28 352,29 356,30 360,32 365,34 370,35 374,36 379,37 382,38 385,42 388,46 391,49 390,56 390,60 391,64 394,65 398,65 402,65 406,66 410,66 415,68 419,69 420,70 420,73 417,84 417,92 417,92 417,101 416,109 415,116 414,122 410,133 409,135 409,136 405,137 400,138 395,140 390,144 386,145 377,146 371,145 367,145 361,145 353,146 347,147 345,148 342,149 334,149 330,147 328,143 326,140 322,135 321,129 319,124 318,119 318,115 319,106 321,101 320,99 321,97 322,93 322,91 322,88 322,88 323,85 323,84 323,81 324,76 324,76 324,71 324,71 326,69 328,67 328,67 327,65 328,63 329,60 331,58 332,55 332,52 332,52 335,49 335,46 335,45 336,43 336,42 335,40 335,38 335,38 335,35 335,35 335,32 335,29 335,27 "/>
 </g>
</svg>
