<?xml version="1.0" encoding="UTF-8"?>
<!DOCTYPE svg PUBLIC "-//W3C//DTD SVG 1.1//EN" "http://www.w3.org/Graphics/SVG/1.1/DTD/svg11.dtd">
<!-- Creator: CorelDRAW X8 -->
<svg xmlns="http://www.w3.org/2000/svg" xml:space="preserve" width="1000px" height="900px" version="1.1" style="shape-rendering:geometricPrecision; text-rendering:geometricPrecision; image-rendering:optimizeQuality; fill-rule:evenodd; clip-rule:evenodd"
viewBox="0 0 1000 900"
 xmlns:xlink="http://www.w3.org/1999/xlink">
 <defs>
  <style type="text/css">
   <![CDATA[
    .str0 {stroke:#388036;stroke-width:3.50277;stroke-linecap:square;stroke-linejoin:bevel}
    .fil0 {fill:none}
    .fil1 {fill:#4DAF4A}
   ]]>
  </style>
 </defs>
 <g id="Capa_x0020_1">
  <metadata id="CorelCorpID_0Corel-Layer"/>
  <rect class="fil0" width="1000" height="900"/>
  <polygon class="fil1 str0" points="855,561 856,561 857,561 858,561 859,562 859,563 860,565 861,567 861,568 862,569 863,570 865,572 866,574 868,575 870,576 869,577 870,580 872,580 874,581 874,583 876,585 878,585 879,583 882,582 884,583 885,582 888,579 888,579 889,577 891,575 892,573 891,571 892,569 894,568 894,568 894,566 893,565 893,564 894,562 895,560 896,558 897,557 899,556 900,556 902,554 906,548 958,547 957,626 950,621 942,619 932,615 924,618 916,619 909,623 896,627 891,631 883,634 874,639 862,642 851,648 844,658 838,665 835,674 829,679 830,691 825,702 818,711 808,717 801,724 793,732 780,738 770,742 760,746 748,748 738,747 730,741 722,730 722,716 724,706 732,694 740,682 744,672 751,661 755,650 758,644 760,634 763,629 767,622 773,617 780,613 787,612 788,612 798,611 803,613 807,614 817,613 822,608 822,600 826,591 826,591 831,585 835,582 843,577 844,576 848,568 "/>
 </g>
</svg>
