<?xml version="1.0" encoding="UTF-8"?>
<!DOCTYPE svg PUBLIC "-//W3C//DTD SVG 1.1//EN" "http://www.w3.org/Graphics/SVG/1.1/DTD/svg11.dtd">
<!-- Creator: CorelDRAW X8 -->
<svg xmlns="http://www.w3.org/2000/svg" xml:space="preserve" width="1000px" height="900px" version="1.1" style="shape-rendering:geometricPrecision; text-rendering:geometricPrecision; image-rendering:optimizeQuality; fill-rule:evenodd; clip-rule:evenodd"
viewBox="0 0 1000 900"
 xmlns:xlink="http://www.w3.org/1999/xlink">
 <defs>
  <style type="text/css">
   <![CDATA[
    .str0 {stroke:#388036;stroke-width:3.50277;stroke-linecap:square;stroke-linejoin:bevel}
    .fil0 {fill:none}
    .fil1 {fill:#4DAF4A}
   ]]>
  </style>
 </defs>
 <g id="Capa_x0020_1">
  <metadata id="CorelCorpID_0Corel-Layer"/>
  <rect class="fil0" width="1000" height="900"/>
  <polygon class="fil1 str0" points="877,584 879,583 883,583 885,583 888,581 889,579 892,578 892,578 892,574 893,570 893,570 893,565 893,564 894,561 894,560 895,560 897,557 900,555 902,553 902,552 903,552 906,549 909,548 918,548 919,548 927,548 933,549 937,549 942,548 947,549 949,549 953,550 956,550 959,550 962,550 962,553 962,553 961,558 960,563 959,569 960,577 960,582 960,582 960,583 960,589 960,589 961,596 961,603 961,604 962,610 962,616 962,621 960,624 957,625 956,625 952,624 951,624 950,624 947,622 945,621 941,619 940,618 936,617 932,616 931,616 927,617 923,619 919,621 919,621 915,623 914,623 913,623 908,626 907,626 906,627 905,627 905,627 900,632 898,632 898,633 895,635 895,635 894,635 893,636 887,640 886,641 885,641 882,643 882,643 881,644 880,644 877,646 877,646 875,646 874,647 870,648 870,648 865,649 863,649 856,649 853,650 852,653 852,654 849,660 848,660 847,664 844,667 842,670 840,672 838,676 838,676 836,677 830,676 830,676 824,674 824,673 819,672 813,671 813,671 812,671 807,669 805,669 805,669 800,667 800,666 796,664 795,664 794,663 793,662 791,660 790,659 789,657 788,656 786,650 785,649 783,646 782,645 780,642 778,639 776,637 776,637 775,636 771,633 771,633 771,632 768,629 766,625 768,621 768,621 772,617 776,614 779,612 779,612 780,611 785,609 786,608 787,608 791,607 792,607 793,607 797,608 803,611 806,612 807,613 808,613 812,614 816,615 818,615 822,613 826,612 826,612 830,610 830,610 831,609 836,605 836,605 839,601 839,601 841,599 842,598 844,596 847,595 847,595 848,595 851,595 851,595 852,595 855,595 856,595 857,595 859,594 861,593 863,591 863,591 865,588 865,588 867,585 870,583 871,583 874,581 875,583 "/>
 </g>
</svg>
