<?xml version="1.0" encoding="UTF-8"?>
<!DOCTYPE svg PUBLIC "-//W3C//DTD SVG 1.1//EN" "http://www.w3.org/Graphics/SVG/1.1/DTD/svg11.dtd">
<!-- Creator: CorelDRAW X8 -->
<svg xmlns="http://www.w3.org/2000/svg" xml:space="preserve" width="1000px" height="900px" version="1.1" style="shape-rendering:geometricPrecision; text-rendering:geometricPrecision; image-rendering:optimizeQuality; fill-rule:evenodd; clip-rule:evenodd"
viewBox="0 0 1000 900"
 xmlns:xlink="http://www.w3.org/1999/xlink">
 <defs>
  <style type="text/css">
   <![CDATA[
    .str0 {stroke:#388036;stroke-width:3.50277;stroke-linecap:square;stroke-linejoin:bevel}
    .fil0 {fill:none}
    .fil1 {fill:#4DAF4A}
   ]]>
  </style>
 </defs>
 <g id="Capa_x0020_1">
  <metadata id="CorelCorpID_0Corel-Layer"/>
  <rect class="fil0" width="1000" height="900"/>
  <polygon class="fil1 str0" points="885,583 887,582 889,580 889,577 890,576 892,576 893,574 891,572 892,570 895,568 895,568 894,566 893,564 894,563 896,560 897,558 899,557 901,555 902,553 904,549 909,549 918,548 929,548 943,548 951,548 957,548 956,556 957,566 957,594 956,642 957,647 956,654 955,659 952,662 947,665 942,667 938,669 935,671 931,672 929,674 926,677 924,680 923,683 922,686 920,690 919,694 917,697 914,700 911,701 909,701 906,699 904,691 901,686 900,681 898,677 894,671 891,666 890,662 890,661 891,656 890,650 888,647 887,644 885,642 883,641 880,641 876,643 861,654 846,662 843,675 838,687 835,705 834,723 835,735 836,751 837,772 837,785 837,803 842,810 844,822 839,834 836,842 831,849 826,860 818,865 807,865 792,855 783,849 775,843 769,836 759,834 753,842 742,849 745,859 737,866 722,870 710,868 707,867 696,862 683,856 668,844 667,843 660,834 645,833 638,828 630,824 627,817 628,803 631,797 632,781 633,760 628,741 638,733 656,729 666,727 678,722 693,713 694,712 709,703 712,702 726,696 728,695 746,681 747,677 749,659 755,641 758,636 761,627 761,626 771,616 774,614 787,611 791,611 803,613 806,613 821,611 829,606 847,596 864,592 872,589 "/>
 </g>
</svg>
