<?xml version="1.0" encoding="UTF-8"?>
<!DOCTYPE svg PUBLIC "-//W3C//DTD SVG 1.1//EN" "http://www.w3.org/Graphics/SVG/1.1/DTD/svg11.dtd">
<!-- Creator: CorelDRAW X8 -->
<svg xmlns="http://www.w3.org/2000/svg" xml:space="preserve" width="1000px" height="900px" version="1.1" style="shape-rendering:geometricPrecision; text-rendering:geometricPrecision; image-rendering:optimizeQuality; fill-rule:evenodd; clip-rule:evenodd"
viewBox="0 0 1000 900"
 xmlns:xlink="http://www.w3.org/1999/xlink">
 <defs>
  <style type="text/css">
   <![CDATA[
    .str0 {stroke:#388036;stroke-width:3.50277;stroke-linecap:square;stroke-linejoin:bevel}
    .fil0 {fill:none}
    .fil1 {fill:#4DAF4A}
   ]]>
  </style>
 </defs>
 <g id="Capa_x0020_1">
  <metadata id="CorelCorpID_0Corel-Layer"/>
  <rect class="fil0" width="1000" height="900"/>
  <polygon class="fil1 str0" points="902,548 957,548 959,725 961,751 956,766 946,785 932,802 919,815 904,820 885,820 872,831 864,833 857,845 848,844 841,860 837,873 831,876 825,876 815,872 807,871 806,869 804,866 800,865 798,863 795,859 794,856 791,853 787,851 783,850 779,848 776,844 772,841 770,838 752,835 747,842 743,851 742,860 741,864 742,866 739,871 736,873 731,873 726,872 721,871 716,869 711,868 705,867 701,867 699,867 698,867 696,866 695,866 694,866 693,865 692,865 691,865 691,864 690,864 689,863 688,852 682,847 672,809 628,755 630,731 682,728 711,715 745,686 753,669 795,633 804,636 844,597 861,594 871,581 873,582 878,585 887,581 889,579 893,571 894,566 895,564 895,562 902,556 "/>
 </g>
</svg>
