<?xml version="1.0" encoding="UTF-8"?>
<!DOCTYPE svg PUBLIC "-//W3C//DTD SVG 1.1//EN" "http://www.w3.org/Graphics/SVG/1.1/DTD/svg11.dtd">
<!-- Creator: CorelDRAW X8 -->
<svg xmlns="http://www.w3.org/2000/svg" xml:space="preserve" width="1000px" height="900px" version="1.1" style="shape-rendering:geometricPrecision; text-rendering:geometricPrecision; image-rendering:optimizeQuality; fill-rule:evenodd; clip-rule:evenodd"
viewBox="0 0 1000 900"
 xmlns:xlink="http://www.w3.org/1999/xlink">
 <defs>
  <style type="text/css">
   <![CDATA[
    .str0 {stroke:#388036;stroke-width:3.50277;stroke-linecap:square;stroke-linejoin:bevel}
    .fil0 {fill:none}
    .fil1 {fill:#4DAF4A}
   ]]>
  </style>
 </defs>
 <g id="Capa_x0020_1">
  <metadata id="CorelCorpID_0Corel-Layer"/>
  <rect class="fil0" width="1000" height="900"/>
  <polygon class="fil1 str0" points="712,565 716,565 719,567 723,570 726,572 728,574 730,576 731,578 735,583 737,586 742,588 745,591 747,595 749,597 754,600 757,604 758,608 757,610 756,612 755,614 754,617 754,619 753,620 752,622 751,622 749,623 748,623 747,623 747,623 745,622 744,621 742,621 741,619 738,618 735,618 733,617 731,616 729,615 726,613 720,611 719,611 714,608 714,608 711,606 710,604 706,600 705,599 701,596 701,596 699,595 696,590 692,586 690,584 687,578 689,573 692,568 694,566 700,566 708,566 "/>
 </g>
</svg>
