<?xml version="1.0" encoding="UTF-8"?>
<!DOCTYPE svg PUBLIC "-//W3C//DTD SVG 1.1//EN" "http://www.w3.org/Graphics/SVG/1.1/DTD/svg11.dtd">
<!-- Creator: CorelDRAW X8 -->
<svg xmlns="http://www.w3.org/2000/svg" xml:space="preserve" width="1000px" height="900px" version="1.1" style="shape-rendering:geometricPrecision; text-rendering:geometricPrecision; image-rendering:optimizeQuality; fill-rule:evenodd; clip-rule:evenodd"
viewBox="0 0 1000 900"
 xmlns:xlink="http://www.w3.org/1999/xlink">
 <defs>
  <style type="text/css">
   <![CDATA[
    .str0 {stroke:#388036;stroke-width:3.50277;stroke-linecap:square;stroke-linejoin:bevel}
    .fil0 {fill:none}
    .fil1 {fill:#4DAF4A}
   ]]>
  </style>
 </defs>
 <g id="Capa_x0020_1">
  <metadata id="CorelCorpID_0Corel-Layer"/>
  <rect class="fil0" width="1000" height="900"/>
  <polygon class="fil1 str0" points="779,540 780,538 782,537 786,536 788,535 791,533 794,532 799,531 803,530 806,531 807,532 809,536 811,538 811,538 816,539 818,540 823,542 827,545 832,547 838,548 843,550 846,552 849,556 852,559 856,563 858,567 859,567 863,572 866,573 868,578 872,582 875,586 879,585 883,584 886,582 886,582 890,578 893,575 893,574 894,568 892,566 894,562 897,558 902,555 905,549 909,548 917,549 918,548 934,549 934,549 949,551 958,550 958,554 956,563 956,564 956,565 958,573 958,573 958,574 958,576 958,585 958,586 959,594 959,594 958,602 956,608 956,648 959,667 958,667 958,689 954,709 954,710 954,721 954,733 961,751 961,752 959,757 955,767 953,773 951,779 947,784 938,791 933,797 928,804 928,805 923,810 917,815 911,817 901,817 894,817 892,817 884,818 882,819 875,823 871,826 865,831 856,839 847,843 844,848 842,852 839,859 837,863 834,870 825,874 818,874 813,874 812,873 804,867 800,865 794,860 792,855 787,853 778,847 772,840 765,837 758,836 751,837 746,841 744,845 742,850 742,855 742,861 742,867 738,873 730,872 721,871 713,869 699,867 690,864 689,863 684,857 680,853 674,847 667,842 660,837 660,837 653,830 646,833 639,836 632,840 626,843 620,843 615,842 610,843 603,841 604,835 600,830 594,832 585,832 578,831 575,827 572,819 572,814 577,807 577,799 577,790 575,780 579,771 577,753 576,740 576,740 579,733 582,728 582,715 578,709 579,704 583,701 588,698 596,696 605,695 611,691 617,690 623,689 630,689 635,684 641,682 645,681 650,678 653,674 652,667 652,661 654,657 660,652 670,649 673,646 683,639 688,636 695,632 710,623 718,619 722,618 729,616 734,612 741,595 743,590 746,583 752,576 759,569 765,565 765,564 769,557 771,550 775,544 "/>
 </g>
</svg>
