<?xml version="1.0" encoding="UTF-8"?>
<!DOCTYPE svg PUBLIC "-//W3C//DTD SVG 1.1//EN" "http://www.w3.org/Graphics/SVG/1.1/DTD/svg11.dtd">
<!-- Creator: CorelDRAW X8 -->
<svg xmlns="http://www.w3.org/2000/svg" xml:space="preserve" width="1000px" height="900px" version="1.1" style="shape-rendering:geometricPrecision; text-rendering:geometricPrecision; image-rendering:optimizeQuality; fill-rule:evenodd; clip-rule:evenodd"
viewBox="0 0 1000 900"
 xmlns:xlink="http://www.w3.org/1999/xlink">
 <defs>
  <style type="text/css">
   <![CDATA[
    .str0 {stroke:#388036;stroke-width:3.50277;stroke-linecap:square;stroke-linejoin:bevel}
    .fil0 {fill:none}
    .fil1 {fill:#4DAF4A}
   ]]>
  </style>
 </defs>
 <g id="Capa_x0020_1">
  <metadata id="CorelCorpID_0Corel-Layer"/>
  <rect class="fil0" width="1000" height="900"/>
  <polygon class="fil1 str0" points="847,551 856,562 862,568 866,570 868,572 869,579 870,579 872,584 878,583 879,583 884,580 893,576 893,570 894,565 894,564 897,560 901,557 901,556 904,548 908,549 915,549 917,549 928,549 936,548 944,549 952,549 956,549 956,553 955,560 955,567 955,568 955,576 956,583 955,588 956,596 956,598 955,608 955,608 956,620 955,629 956,633 957,645 957,659 957,662 957,663 956,686 956,686 956,688 954,699 954,701 955,711 955,713 956,722 956,723 957,734 957,734 958,741 958,747 959,756 957,762 957,763 955,764 953,769 953,770 950,776 949,777 947,782 943,786 940,790 936,795 933,799 930,803 929,804 924,810 924,810 917,814 913,817 908,817 899,817 891,817 889,817 887,817 886,817 883,818 878,820 878,820 872,823 869,826 868,827 863,830 863,831 859,835 858,836 854,838 852,839 849,841 845,845 843,851 842,852 840,858 837,863 834,869 831,872 825,873 824,873 819,874 813,873 812,872 810,871 808,871 807,870 805,867 804,867 800,862 797,858 797,858 793,855 789,851 781,849 780,849 776,842 770,839 770,839 767,838 767,837 763,836 759,835 759,835 753,836 749,838 745,842 744,843 743,844 741,850 741,857 741,863 741,864 740,869 738,871 737,872 732,873 727,872 726,872 725,871 717,870 717,870 710,869 707,869 702,866 697,866 693,865 692,864 689,860 689,857 689,856 684,850 680,845 680,845 680,843 679,838 679,836 678,830 677,828 675,822 665,802 664,801 661,798 661,796 660,795 657,792 656,791 655,789 652,785 651,784 650,783 648,779 647,778 641,772 641,771 640,770 633,762 632,761 632,760 629,753 629,753 628,741 628,737 630,733 635,730 643,730 643,730 654,730 655,730 667,728 668,728 670,727 679,726 680,726 689,723 697,720 699,720 706,716 712,712 713,712 718,708 719,708 720,707 724,702 726,697 727,691 727,687 727,687 725,682 723,679 726,677 726,670 726,669 725,661 727,653 730,649 733,644 734,644 737,638 737,637 739,631 745,625 749,622 751,617 755,614 760,611 764,609 766,607 769,603 773,602 777,600 779,599 783,597 786,595 787,594 788,590 791,587 794,582 800,576 807,572 812,570 819,566 824,566 828,562 834,559 836,558 843,555 "/>
 </g>
</svg>
