<?xml version="1.0" encoding="UTF-8"?>
<!DOCTYPE svg PUBLIC "-//W3C//DTD SVG 1.1//EN" "http://www.w3.org/Graphics/SVG/1.1/DTD/svg11.dtd">
<!-- Creator: CorelDRAW X8 -->
<svg xmlns="http://www.w3.org/2000/svg" xml:space="preserve" width="1000px" height="900px" version="1.1" style="shape-rendering:geometricPrecision; text-rendering:geometricPrecision; image-rendering:optimizeQuality; fill-rule:evenodd; clip-rule:evenodd"
viewBox="0 0 1000 900"
 xmlns:xlink="http://www.w3.org/1999/xlink">
 <defs>
  <style type="text/css">
   <![CDATA[
    .str0 {stroke:#388036;stroke-width:3.50277;stroke-linecap:square;stroke-linejoin:bevel}
    .fil0 {fill:none}
    .fil1 {fill:#4DAF4A}
   ]]>
  </style>
 </defs>
 <g id="Capa_x0020_1">
  <metadata id="CorelCorpID_0Corel-Layer"/>
  <rect class="fil0" width="1000" height="900"/>
  <polygon class="fil1 str0" points="649,704 654,704 658,707 661,708 665,710 669,712 669,718 669,722 667,725 663,727 658,728 651,728 644,730 641,732 635,733 628,733 621,733 614,734 606,734 601,734 597,736 594,738 594,743 591,748 588,752 586,756 585,761 587,767 588,773 589,776 588,782 587,787 587,792 587,796 588,802 587,806 585,810 584,814 583,819 580,823 577,827 575,830 573,828 568,820 565,816 566,813 570,809 576,804 577,799 573,795 573,792 572,786 572,782 572,779 574,776 574,774 575,772 575,772 575,770 573,769 572,768 571,766 571,764 570,763 571,762 571,760 571,758 571,756 572,756 573,754 573,753 572,752 574,749 575,747 575,743 575,739 574,735 575,730 575,725 575,720 575,717 579,714 582,711 586,709 591,707 599,705 603,705 610,705 620,704 620,704 630,704 637,704 644,705 "/>
  <polygon class="fil1 str0" points="753,621 753,620 753,619 754,616 754,615 754,613 755,612 755,610 755,609 755,609 756,608 757,606 757,606 757,605 757,604 757,603 757,602 757,601 756,600 755,599 755,597 755,597 755,596 755,596 754,594 754,593 754,592 753,590 753,590 754,588 757,587 757,587 758,586 760,586 762,587 764,587 766,589 767,591 767,591 768,593 768,593 768,594 769,595 769,596 770,597 770,597 770,599 770,599 771,600 771,600 772,601 773,601 774,602 774,604 774,604 775,605 775,606 775,607 775,608 776,609 775,610 774,612 772,613 771,615 770,615 770,617 770,617 769,619 768,621 768,622 768,622 767,623 764,623 762,623 762,623 760,623 758,624 756,624 754,623 "/>
 </g>
</svg>
