<?xml version="1.0" encoding="UTF-8"?>
<!DOCTYPE svg PUBLIC "-//W3C//DTD SVG 1.1//EN" "http://www.w3.org/Graphics/SVG/1.1/DTD/svg11.dtd">
<!-- Creator: CorelDRAW X8 -->
<svg xmlns="http://www.w3.org/2000/svg" xml:space="preserve" width="1000px" height="900px" version="1.1" style="shape-rendering:geometricPrecision; text-rendering:geometricPrecision; image-rendering:optimizeQuality; fill-rule:evenodd; clip-rule:evenodd"
viewBox="0 0 1000 900"
 xmlns:xlink="http://www.w3.org/1999/xlink">
 <defs>
  <style type="text/css">
   <![CDATA[
    .str0 {stroke:#388036;stroke-width:3.50277;stroke-linecap:square;stroke-linejoin:bevel}
    .fil0 {fill:none}
    .fil1 {fill:#4DAF4A}
   ]]>
  </style>
 </defs>
 <g id="Capa_x0020_1">
  <metadata id="CorelCorpID_0Corel-Layer"/>
  <rect class="fil0" width="1000" height="900"/>
  <polygon class="fil1 str0" points="758,545 760,543 761,544 762,545 763,546 764,547 766,547 766,547 767,547 769,547 772,545 772,545 773,544 773,543 774,542 778,536 778,536 780,535 784,535 786,536 786,536 787,536 787,535 787,534 787,532 788,532 789,532 790,531 792,531 794,531 796,531 799,530 801,530 804,529 805,529 807,530 808,532 809,533 809,533 810,535 811,537 814,537 817,538 820,538 822,539 824,540 825,542 827,542 828,543 830,544 832,545 834,546 836,546 839,546 839,548 841,548 844,549 845,550 847,551 847,552 845,554 843,555 841,556 837,558 834,560 832,562 829,566 824,567 820,569 817,572 812,576 812,581 810,585 808,589 805,592 801,592 796,592 791,594 789,596 784,599 781,603 778,605 776,608 772,610 768,613 765,616 762,619 757,621 753,624 749,628 744,632 741,635 736,638 733,642 730,646 729,652 727,659 725,663 723,666 720,667 716,669 712,674 709,678 706,683 702,688 698,691 695,693 692,697 691,699 691,701 691,703 691,705 690,708 690,710 690,712 689,716 689,718 688,721 688,724 687,726 686,729 684,733 682,735 680,737 678,739 676,742 676,744 674,746 672,747 669,748 667,750 665,751 662,752 659,751 656,751 654,751 652,751 649,749 646,748 644,746 643,744 640,740 638,740 637,740 634,740 633,740 631,739 631,737 630,735 628,735 625,735 623,736 621,737 620,739 617,739 615,739 612,739 609,737 607,738 606,739 605,739 602,740 601,741 600,741 596,742 594,743 592,743 590,744 587,744 584,744 581,743 579,742 578,741 577,738 576,735 576,733 577,730 577,727 578,724 578,722 578,720 578,716 575,712 576,711 580,707 584,699 590,694 597,692 600,685 608,678 616,671 624,664 634,655 641,651 647,645 654,638 661,634 669,626 675,618 678,613 685,607 693,603 707,600 719,597 729,590 734,579 742,570 743,569 750,563 750,562 "/>
 </g>
</svg>
