<?xml version="1.0" encoding="UTF-8"?>
<!DOCTYPE svg PUBLIC "-//W3C//DTD SVG 1.1//EN" "http://www.w3.org/Graphics/SVG/1.1/DTD/svg11.dtd">
<!-- Creator: CorelDRAW X8 -->
<svg xmlns="http://www.w3.org/2000/svg" xml:space="preserve" width="1000px" height="900px" version="1.1" style="shape-rendering:geometricPrecision; text-rendering:geometricPrecision; image-rendering:optimizeQuality; fill-rule:evenodd; clip-rule:evenodd"
viewBox="0 0 1000 900"
 xmlns:xlink="http://www.w3.org/1999/xlink">
 <defs>
  <style type="text/css">
   <![CDATA[
    .str0 {stroke:#388036;stroke-width:3.50277;stroke-linecap:square;stroke-linejoin:bevel}
    .fil0 {fill:none}
    .fil1 {fill:#4DAF4A}
   ]]>
  </style>
 </defs>
 <g id="Capa_x0020_1">
  <metadata id="CorelCorpID_0Corel-Layer"/>
  <rect class="fil0" width="1000" height="900"/>
  <polygon class="fil1 str0" points="561,823 562,816 563,813 571,809 576,805 577,780 577,760 578,717 575,707 574,700 574,692 577,689 584,679 588,675 594,668 602,660 605,659 636,634 645,626 667,619 686,610 699,610 715,613 732,607 744,579 749,567 753,557 757,548 759,544 762,546 764,546 767,547 768,547 770,546 772,545 774,544 775,542 775,541 776,539 777,538 778,537 780,535 782,535 783,536 784,536 785,536 787,536 788,534 789,533 791,532 793,531 795,531 798,530 800,530 802,529 804,529 806,531 808,533 809,536 811,537 814,538 817,538 820,538 823,540 825,542 828,543 831,545 832,546 834,547 835,547 838,548 843,549 844,551 847,555 852,558 855,561 858,563 858,566 858,569 860,571 864,572 866,574 867,579 869,580 866,585 863,591 860,591 849,594 843,598 827,610 822,615 816,621 807,630 804,631 799,631 790,633 785,637 781,644 780,645 767,655 757,662 757,663 750,672 747,677 745,679 740,685 729,695 719,696 708,696 698,697 683,702 673,706 664,715 657,721 646,725 636,727 629,733 627,743 627,746 626,760 626,765 625,782 627,797 630,811 630,819 632,824 636,831 638,836 638,837 635,839 630,843 624,845 620,845 618,845 617,844 615,844 612,844 610,844 609,844 606,843 604,842 603,843 602,841 601,839 601,838 602,837 603,835 602,834 601,833 600,832 598,832 597,832 595,833 591,833 588,833 586,833 582,833 580,833 580,833 578,835 578,835 577,833 577,832 576,831 574,830 573,830 573,829 572,826 572,824 572,822 571,822 "/>
  <polygon class="fil1 str0" points="807,868 814,859 827,842 835,824 838,809 835,794 835,788 837,764 837,741 836,724 837,678 838,661 842,651 843,647 845,643 849,640 851,639 852,639 854,638 855,637 855,637 861,637 864,641 867,643 870,647 872,649 876,654 879,662 881,665 882,672 883,684 884,690 886,696 887,704 887,708 889,721 890,728 891,736 893,747 895,756 896,762 897,769 898,774 899,776 900,781 900,784 901,791 901,797 901,803 901,808 901,809 901,812 902,816 902,820 902,821 900,822 899,822 898,822 897,822 896,822 895,823 895,823 894,823 893,823 892,823 891,823 890,823 890,823 889,822 889,822 887,821 887,821 885,821 883,821 881,823 880,824 880,824 879,825 878,826 877,827 875,829 875,829 874,830 873,830 872,832 872,832 870,833 870,833 868,833 867,833 866,833 865,834 864,834 863,835 863,835 862,837 861,839 860,841 860,843 854,844 851,845 849,845 847,847 845,851 843,857 842,860 841,863 840,866 839,869 836,873 835,875 833,876 829,877 828,877 824,876 822,876 821,873 818,873 815,871 811,871 808,871 807,871 "/>
 </g>
</svg>
