<?xml version="1.0" encoding="UTF-8"?>
<!DOCTYPE svg PUBLIC "-//W3C//DTD SVG 1.1//EN" "http://www.w3.org/Graphics/SVG/1.1/DTD/svg11.dtd">
<!-- Creator: CorelDRAW X8 -->
<svg xmlns="http://www.w3.org/2000/svg" xml:space="preserve" width="1000px" height="900px" version="1.1" style="shape-rendering:geometricPrecision; text-rendering:geometricPrecision; image-rendering:optimizeQuality; fill-rule:evenodd; clip-rule:evenodd"
viewBox="0 0 1000 900"
 xmlns:xlink="http://www.w3.org/1999/xlink">
 <defs>
  <style type="text/css">
   <![CDATA[
    .str0 {stroke:#388036;stroke-width:3.50277;stroke-linecap:square;stroke-linejoin:bevel}
    .fil0 {fill:none}
    .fil1 {fill:#4DAF4A}
   ]]>
  </style>
 </defs>
 <g id="Capa_x0020_1">
  <metadata id="CorelCorpID_0Corel-Layer"/>
  <rect class="fil0" width="1000" height="900"/>
  <polygon class="fil1 str0" points="854,562 867,570 869,576 876,585 882,583 890,575 893,564 901,554 909,543 924,544 903,588 877,604 859,625 851,651 836,679 835,707 829,728 812,746 793,756 775,762 740,763 724,752 714,742 704,734 700,721 697,712 692,699 686,687 681,678 682,665 694,665 713,671 728,676 740,668 743,658 741,643 730,630 733,618 742,610 751,608 777,621 807,618 824,607 834,596 845,577 "/>
 </g>
</svg>
