<?xml version="1.0" encoding="UTF-8"?>
<!DOCTYPE svg PUBLIC "-//W3C//DTD SVG 1.1//EN" "http://www.w3.org/Graphics/SVG/1.1/DTD/svg11.dtd">
<!-- Creator: CorelDRAW X8 -->
<svg xmlns="http://www.w3.org/2000/svg" xml:space="preserve" width="1000px" height="900px" version="1.1" style="shape-rendering:geometricPrecision; text-rendering:geometricPrecision; image-rendering:optimizeQuality; fill-rule:evenodd; clip-rule:evenodd"
viewBox="0 0 1000 900"
 xmlns:xlink="http://www.w3.org/1999/xlink">
 <defs>
  <style type="text/css">
   <![CDATA[
    .str0 {stroke:#388036;stroke-width:3.50277;stroke-linecap:square;stroke-linejoin:bevel}
    .fil0 {fill:none}
    .fil1 {fill:#4DAF4A}
   ]]>
  </style>
 </defs>
 <g id="Capa_x0020_1">
  <metadata id="CorelCorpID_0Corel-Layer"/>
  <rect class="fil0" width="1000" height="900"/>
  <polygon class="fil1 str0" points="851,554 856,559 860,566 864,572 877,584 890,579 894,563 903,548 958,548 962,654 960,749 954,768 941,794 925,813 911,819 884,820 872,831 860,838 849,843 838,858 829,872 817,876 803,865 785,848 771,836 750,837 741,867 730,872 706,864 680,854 664,839 650,832 622,841 606,839 595,822 589,798 590,776 589,756 622,729 668,727 694,719 727,695 739,674 750,650 757,627 780,616 810,602 825,595 836,574 "/>
 </g>
</svg>
