<?xml version="1.0" encoding="UTF-8"?>
<!DOCTYPE svg PUBLIC "-//W3C//DTD SVG 1.1//EN" "http://www.w3.org/Graphics/SVG/1.1/DTD/svg11.dtd">
<!-- Creator: CorelDRAW X8 -->
<svg xmlns="http://www.w3.org/2000/svg" xml:space="preserve" width="1000px" height="900px" version="1.1" style="shape-rendering:geometricPrecision; text-rendering:geometricPrecision; image-rendering:optimizeQuality; fill-rule:evenodd; clip-rule:evenodd"
viewBox="0 0 1000 900"
 xmlns:xlink="http://www.w3.org/1999/xlink">
 <defs>
  <style type="text/css">
   <![CDATA[
    .str0 {stroke:#388036;stroke-width:3.50277;stroke-linecap:square;stroke-linejoin:bevel}
    .fil0 {fill:none}
    .fil1 {fill:#4DAF4A}
   ]]>
  </style>
 </defs>
 <g id="Capa_x0020_1">
  <metadata id="CorelCorpID_0Corel-Layer"/>
  <rect class="fil0" width="1000" height="900"/>
  <polygon class="fil1 str0" points="861,567 869,572 867,581 878,586 885,584 892,578 895,566 898,559 910,546 959,545 958,639 957,693 955,716 959,734 963,753 957,763 944,786 935,800 926,815 921,816 910,820 903,820 877,822 872,830 854,844 847,846 844,854 844,856 843,857 843,858 836,873 826,876 820,874 809,871 806,866 799,862 794,855 786,850 781,848 775,842 770,837 752,835 745,846 742,855 740,870 732,873 721,870 706,867 693,865 683,861 681,854 680,851 670,844 665,839 653,828 639,840 622,845 606,843 602,837 596,832 594,822 608,804 610,774 618,747 631,734 683,727 719,708 744,675 766,647 767,646 782,634 786,632 789,630 806,622 810,620 830,605 846,586 "/>
 </g>
</svg>
