<?xml version="1.0" encoding="UTF-8"?>
<!DOCTYPE svg PUBLIC "-//W3C//DTD SVG 1.1//EN" "http://www.w3.org/Graphics/SVG/1.1/DTD/svg11.dtd">
<!-- Creator: CorelDRAW X8 -->
<svg xmlns="http://www.w3.org/2000/svg" xml:space="preserve" width="1000px" height="900px" version="1.1" style="shape-rendering:geometricPrecision; text-rendering:geometricPrecision; image-rendering:optimizeQuality; fill-rule:evenodd; clip-rule:evenodd"
viewBox="0 0 1000 900"
 xmlns:xlink="http://www.w3.org/1999/xlink">
 <defs>
  <style type="text/css">
   <![CDATA[
    .str0 {stroke:#388036;stroke-width:3.50277;stroke-linecap:square;stroke-linejoin:bevel}
    .fil0 {fill:none}
    .fil1 {fill:#4DAF4A}
   ]]>
  </style>
 </defs>
 <g id="Capa_x0020_1">
  <metadata id="CorelCorpID_0Corel-Layer"/>
  <rect class="fil0" width="1000" height="900"/>
  <polygon class="fil1 str0" points="704,867 701,866 697,865 693,864 687,862 683,860 682,857 681,854 679,850 677,848 672,845 667,841 664,838 664,838 660,834 656,832 655,832 655,832 652,830 649,830 646,831 646,831 643,833 642,833 640,835 639,835 638,836 638,838 638,839 635,840 634,841 629,840 623,841 620,842 617,844 610,843 606,842 604,842 601,841 601,838 601,838 601,834 598,834 597,834 592,833 587,832 585,832 580,832 576,832 575,831 573,830 571,828 570,825 568,822 562,822 562,822 557,824 556,827 553,831 552,828 549,829 544,829 544,819 545,805 551,796 549,786 548,775 549,769 549,762 547,752 539,742 550,738 550,735 551,721 551,717 550,705 555,689 555,687 555,683 554,671 562,666 568,661 569,660 580,650 591,644 600,640 621,622 624,617 629,607 636,596 645,591 644,589 642,571 642,555 644,551 655,541 657,539 668,534 681,534 687,532 696,517 709,508 717,503 726,497 738,499 738,509 737,519 744,529 746,537 757,541 772,539 782,537 783,536 794,531 804,529 811,533 823,540 830,543 838,546 845,553 852,562 866,570 872,579 875,587 868,593 860,599 853,602 845,604 835,608 822,613 814,613 796,614 779,619 769,625 764,631 759,641 750,653 741,666 738,687 735,696 736,709 736,717 730,727 724,733 717,739 711,744 704,751 697,763 695,787 698,799 698,811 699,828 701,838 701,852 "/>
  <polygon class="fil1 str0" points="892,646 895,660 897,669 899,676 901,686 902,692 902,698 901,703 900,711 904,717 906,729 905,740 907,753 904,763 902,771 903,778 907,799 907,808 904,819 897,819 893,814 884,812 879,816 878,822 871,829 867,831 861,832 853,838 846,846 837,855 830,863 822,871 817,873 810,874 810,865 812,853 814,840 814,826 811,811 813,799 818,791 827,778 827,776 835,760 842,750 843,741 843,740 844,732 845,731 847,722 850,713 850,712 855,704 858,692 861,681 861,680 864,674 865,673 865,672 869,665 869,664 873,658 878,650 883,646 888,644 "/>
 </g>
</svg>
