<?xml version="1.0" encoding="UTF-8"?>
<!DOCTYPE svg PUBLIC "-//W3C//DTD SVG 1.1//EN" "http://www.w3.org/Graphics/SVG/1.1/DTD/svg11.dtd">
<!-- Creator: CorelDRAW X8 -->
<svg xmlns="http://www.w3.org/2000/svg" xml:space="preserve" width="1000px" height="900px" version="1.1" style="shape-rendering:geometricPrecision; text-rendering:geometricPrecision; image-rendering:optimizeQuality; fill-rule:evenodd; clip-rule:evenodd"
viewBox="0 0 1000 900"
 xmlns:xlink="http://www.w3.org/1999/xlink">
 <defs>
  <style type="text/css">
   <![CDATA[
    .str0 {stroke:#388036;stroke-width:3.50277;stroke-linecap:square;stroke-linejoin:bevel}
    .fil0 {fill:none}
    .fil1 {fill:#4DAF4A}
   ]]>
  </style>
 </defs>
 <g id="Capa_x0020_1">
  <metadata id="CorelCorpID_0Corel-Layer"/>
  <rect class="fil0" width="1000" height="900"/>
  <polygon class="fil1 str0" points="952,549 960,550 961,553 961,570 962,586 962,628 959,626 954,623 946,620 940,618 932,614 918,621 910,625 901,628 888,634 876,640 862,646 853,650 849,657 844,665 840,673 838,678 837,684 837,691 836,697 836,703 837,712 836,719 836,727 836,733 835,738 836,749 835,755 835,762 835,768 835,774 835,781 835,786 835,792 834,798 835,802 837,806 840,808 843,810 843,814 843,817 843,821 841,825 837,830 833,835 830,838 826,843 823,847 818,854 815,859 812,863 808,868 804,872 805,867 802,866 798,864 796,860 795,857 791,854 787,851 784,849 782,848 780,847 780,846 778,845 777,844 775,843 774,843 772,841 769,840 766,837 762,837 758,836 755,835 753,835 751,838 749,841 749,841 747,844 745,848 743,851 742,852 742,854 741,858 740,859 740,861 740,865 740,866 738,868 736,870 732,871 730,872 728,872 724,870 724,870 719,870 716,868 715,868 714,867 710,866 706,865 705,865 699,866 699,866 694,865 690,863 690,859 691,854 687,849 683,848 680,843 679,838 679,832 676,825 676,821 674,815 672,809 669,804 665,800 661,796 659,793 659,793 658,789 654,781 648,778 643,775 638,769 629,765 630,756 631,743 632,735 638,735 648,734 669,734 680,732 694,727 701,725 713,718 720,713 721,712 730,704 740,697 742,695 749,687 749,686 755,674 762,666 763,664 769,658 769,658 774,651 784,644 794,639 805,635 814,630 823,620 831,611 841,602 857,596 863,592 872,587 878,585 894,577 896,567 902,559 907,550 913,550 924,550 935,548 944,549 "/>
 </g>
</svg>
