<?xml version="1.0" encoding="UTF-8"?>
<!DOCTYPE svg PUBLIC "-//W3C//DTD SVG 1.1//EN" "http://www.w3.org/Graphics/SVG/1.1/DTD/svg11.dtd">
<!-- Creator: CorelDRAW X8 -->
<svg xmlns="http://www.w3.org/2000/svg" xml:space="preserve" width="1000px" height="900px" version="1.1" style="shape-rendering:geometricPrecision; text-rendering:geometricPrecision; image-rendering:optimizeQuality; fill-rule:evenodd; clip-rule:evenodd"
viewBox="0 0 1000 900"
 xmlns:xlink="http://www.w3.org/1999/xlink">
 <defs>
  <style type="text/css">
   <![CDATA[
    .str0 {stroke:#388036;stroke-width:3.50277;stroke-linecap:square;stroke-linejoin:bevel}
    .fil0 {fill:none}
    .fil1 {fill:#4DAF4A}
   ]]>
  </style>
 </defs>
 <g id="Capa_x0020_1">
  <metadata id="CorelCorpID_0Corel-Layer"/>
  <rect class="fil0" width="1000" height="900"/>
  <polygon class="fil1 str0" points="746,541 745,541 741,539 734,538 726,542 716,544 710,541 704,538 701,534 693,532 684,533 684,533 675,536 674,536 669,542 669,542 667,549 667,554 664,565 660,572 656,580 655,589 651,597 651,598 650,605 649,605 647,613 641,621 630,629 630,629 621,634 616,637 611,635 610,632 611,626 614,618 615,610 615,601 615,599 619,591 621,589 622,588 619,581 621,574 624,570 625,566 622,564 614,564 606,563 600,562 596,562 590,561 587,558 586,559 584,560 583,561 582,562 580,564 579,565 578,566 577,567 576,569 575,571 574,573 573,575 572,577 572,578 571,579 570,581 569,583 569,585 568,585 568,586 567,587 563,600 556,608 549,620 544,637 543,649 544,662 548,673 554,683 559,691 569,703 567,719 570,729 570,738 567,759 563,770 567,783 567,793 567,804 568,810 562,815 559,821 555,824 552,827 549,825 545,824 541,822 537,821 533,817 530,814 529,813 524,810 524,810 519,808 519,808 517,805 516,805 516,801 516,801 518,797 518,796 517,792 513,789 512,788 511,788 511,788 508,786 508,785 507,781 507,780 507,779 508,776 508,775 508,775 507,770 507,769 507,769 505,766 505,765 502,764 502,763 501,763 499,761 498,761 498,760 497,756 497,755 497,755 495,753 494,752 492,750 492,749 491,748 490,745 490,744 490,741 490,737 489,736 489,734 489,733 490,730 491,729 490,725 489,725 489,724 487,723 486,722 486,720 481,713 476,711 469,704 465,697 458,692 444,685 441,684 440,684 428,683 427,683 418,681 417,681 410,679 408,670 408,667 405,654 404,652 400,643 399,641 398,639 398,629 398,628 406,620 407,619 409,609 408,606 406,599 406,596 404,588 403,585 403,583 402,575 402,573 407,556 408,553 409,553 409,547 400,540 388,532 386,532 369,522 367,521 355,517 353,517 344,517 338,527 336,529 328,538 328,540 328,541 322,548 320,551 320,554 320,554 318,562 317,565 316,567 313,572 307,582 302,585 299,588 298,589 294,595 293,597 292,598 292,603 291,606 291,608 292,614 292,617 294,636 294,642 292,648 295,658 297,669 297,669 296,682 294,695 294,703 289,712 289,713 289,721 287,723 276,732 267,741 266,743 255,747 252,747 239,744 237,743 222,741 221,742 212,740 204,735 196,731 179,722 166,711 149,697 131,680 113,674 108,658 104,643 81,632 64,620 49,612 41,598 47,578 59,554 62,534 71,516 81,498 83,480 88,465 92,447 97,432 99,415 104,398 106,388 93,372 83,361 67,347 59,337 61,323 71,311 84,302 98,290 106,278 103,263 111,252 126,243 139,239 154,235 172,230 179,217 181,201 184,184 188,172 196,166 211,156 228,154 242,153 261,148 280,142 299,135 310,129 320,120 325,106 330,90 332,76 336,63 339,52 341,38 344,29 357,35 369,45 375,55 388,69 413,75 429,80 437,91 444,106 455,118 465,126 480,129 496,129 523,128 551,132 568,132 586,132 591,146 590,177 593,203 590,226 590,243 593,263 591,290 596,316 594,334 602,359 612,379 619,388 632,392 646,394 659,389 664,390 668,391 672,393 676,396 681,399 685,402 686,405 690,414 688,419 688,422 690,427 690,433 692,437 692,445 687,450 686,455 693,463 693,464 697,470 697,470 706,476 706,476 717,484 721,488 726,498 729,505 733,514 736,520 740,525 743,531 745,537 747,539 747,540 "/>
 </g>
</svg>
