<?xml version="1.0" encoding="UTF-8"?>
<!DOCTYPE svg PUBLIC "-//W3C//DTD SVG 1.1//EN" "http://www.w3.org/Graphics/SVG/1.1/DTD/svg11.dtd">
<!-- Creator: CorelDRAW X8 -->
<svg xmlns="http://www.w3.org/2000/svg" xml:space="preserve" width="1000px" height="900px" version="1.1" style="shape-rendering:geometricPrecision; text-rendering:geometricPrecision; image-rendering:optimizeQuality; fill-rule:evenodd; clip-rule:evenodd"
viewBox="0 0 1000 900"
 xmlns:xlink="http://www.w3.org/1999/xlink">
 <defs>
  <style type="text/css">
   <![CDATA[
    .str0 {stroke:#388036;stroke-width:3.50277;stroke-linecap:square;stroke-linejoin:bevel}
    .fil0 {fill:none}
    .fil1 {fill:#4DAF4A}
   ]]>
  </style>
 </defs>
 <g id="Capa_x0020_1">
  <metadata id="CorelCorpID_0Corel-Layer"/>
  <rect class="fil0" width="1000" height="900"/>
  <polygon class="fil1 str0" points="775,541 782,537 787,534 794,532 801,531 808,532 813,535 818,539 817,544 814,550 807,557 803,561 795,565 789,572 784,578 776,586 768,596 758,605 757,610 755,617 750,623 743,629 736,633 730,637 725,640 721,645 715,652 712,657 709,661 705,667 702,672 700,677 697,684 696,690 696,695 694,700 693,707 691,714 688,720 684,724 678,726 670,727 663,729 654,729 646,729 637,731 629,731 625,737 617,741 610,743 603,744 594,747 587,744 584,741 581,734 579,728 579,721 581,713 589,705 593,702 603,698 611,696 617,694 627,690 635,688 642,684 649,682 656,677 661,673 667,667 669,660 671,656 673,650 673,644 673,637 676,629 677,619 680,614 684,611 689,607 697,603 709,604 715,603 720,602 725,595 729,581 735,570 741,563 745,554 751,549 757,546 762,546 768,545 "/>
 </g>
</svg>
