<?xml version="1.0" encoding="UTF-8"?>
<!DOCTYPE svg PUBLIC "-//W3C//DTD SVG 1.1//EN" "http://www.w3.org/Graphics/SVG/1.1/DTD/svg11.dtd">
<!-- Creator: CorelDRAW X8 -->
<svg xmlns="http://www.w3.org/2000/svg" xml:space="preserve" width="1000px" height="900px" version="1.1" style="shape-rendering:geometricPrecision; text-rendering:geometricPrecision; image-rendering:optimizeQuality; fill-rule:evenodd; clip-rule:evenodd"
viewBox="0 0 1000 900"
 xmlns:xlink="http://www.w3.org/1999/xlink">
 <defs>
  <style type="text/css">
   <![CDATA[
    .str0 {stroke:#388036;stroke-width:3.50277;stroke-linecap:square;stroke-linejoin:bevel}
    .fil0 {fill:none}
    .fil1 {fill:#4DAF4A}
   ]]>
  </style>
 </defs>
 <g id="Capa_x0020_1">
  <metadata id="CorelCorpID_0Corel-Layer"/>
  <rect class="fil0" width="1000" height="900"/>
  <polygon class="fil1 str0" points="747,543 754,542 759,544 763,546 763,546 766,546 766,546 768,546 771,545 773,543 773,543 775,541 775,541 777,538 780,537 786,537 798,533 806,536 811,540 819,541 828,544 836,547 842,551 851,563 865,574 871,582 878,584 886,578 893,572 896,564 899,557 907,550 957,549 959,697 957,712 956,725 954,733 959,747 959,758 954,767 953,773 946,780 940,787 933,794 928,800 922,808 915,816 906,816 899,816 890,819 878,823 869,830 861,834 855,841 845,844 840,856 836,866 826,870 815,871 805,866 800,862 795,856 789,851 779,845 775,842 769,838 763,836 759,834 754,836 751,842 745,849 743,851 740,860 740,871 733,874 723,870 716,869 705,867 694,864 686,861 684,857 680,851 673,846 668,843 662,838 656,834 650,834 641,837 631,840 624,843 614,842 606,839 604,834 593,831 585,833 577,831 569,822 562,820 564,815 572,810 576,806 578,798 578,788 578,779 579,767 578,751 578,743 580,732 579,719 573,708 566,700 560,689 552,678 548,673 545,665 546,656 546,647 547,635 550,628 552,621 556,612 559,607 564,599 567,591 571,587 576,575 581,566 584,559 589,552 593,547 594,539 594,528 596,519 595,509 594,501 599,497 603,493 609,489 614,488 621,488 628,493 636,494 636,503 636,503 636,517 636,518 637,532 636,543 631,551 624,557 624,558 620,569 619,570 619,583 619,583 617,596 617,597 616,608 613,620 612,621 607,632 605,639 598,648 594,657 601,654 601,653 609,646 620,638 621,638 633,634 634,633 641,627 646,621 649,610 651,600 654,592 656,583 656,583 661,572 665,565 668,556 670,544 673,540 682,534 695,534 702,538 709,541 720,544 728,539 735,538 742,540 "/>
 </g>
</svg>
