<?xml version="1.0" encoding="UTF-8"?>
<!DOCTYPE svg PUBLIC "-//W3C//DTD SVG 1.1//EN" "http://www.w3.org/Graphics/SVG/1.1/DTD/svg11.dtd">
<!-- Creator: CorelDRAW X8 -->
<svg xmlns="http://www.w3.org/2000/svg" xml:space="preserve" width="1000px" height="900px" version="1.1" style="shape-rendering:geometricPrecision; text-rendering:geometricPrecision; image-rendering:optimizeQuality; fill-rule:evenodd; clip-rule:evenodd"
viewBox="0 0 1000 900"
 xmlns:xlink="http://www.w3.org/1999/xlink">
 <defs>
  <style type="text/css">
   <![CDATA[
    .str0 {stroke:#388036;stroke-width:3.50277;stroke-linecap:square;stroke-linejoin:bevel}
    .fil0 {fill:none}
    .fil1 {fill:#4DAF4A}
   ]]>
  </style>
 </defs>
 <g id="Capa_x0020_1">
  <metadata id="CorelCorpID_0Corel-Layer"/>
  <rect class="fil0" width="1000" height="900"/>
  <polygon class="fil1 str0" points="720,609 719,607 718,604 716,602 715,600 712,598 712,598 712,597 711,595 710,593 710,592 710,590 710,590 711,589 711,587 712,586 714,586 716,586 718,586 720,587 722,588 724,588 727,589 729,590 730,592 733,593 736,595 738,598 738,598 738,599 740,601 744,602 745,603 746,604 748,607 749,610 749,612 749,614 749,616 748,618 746,619 744,619 743,619 741,619 740,620 738,620 735,619 733,618 731,617 730,615 730,615 730,614 730,612 729,611 728,610 725,609 723,609 722,609 "/>
 </g>
</svg>
