<?xml version="1.0" encoding="UTF-8"?>
<!DOCTYPE svg PUBLIC "-//W3C//DTD SVG 1.1//EN" "http://www.w3.org/Graphics/SVG/1.1/DTD/svg11.dtd">
<!-- Creator: CorelDRAW X8 -->
<svg xmlns="http://www.w3.org/2000/svg" xml:space="preserve" width="1000px" height="900px" version="1.1" style="shape-rendering:geometricPrecision; text-rendering:geometricPrecision; image-rendering:optimizeQuality; fill-rule:evenodd; clip-rule:evenodd"
viewBox="0 0 1000 900"
 xmlns:xlink="http://www.w3.org/1999/xlink">
 <defs>
  <style type="text/css">
   <![CDATA[
    .str0 {stroke:#388036;stroke-width:3.50277;stroke-linecap:square;stroke-linejoin:bevel}
    .fil0 {fill:none}
    .fil1 {fill:#4DAF4A}
   ]]>
  </style>
 </defs>
 <g id="Capa_x0020_1">
  <metadata id="CorelCorpID_0Corel-Layer"/>
  <rect class="fil0" width="1000" height="900"/>
  <polygon class="fil1 str0" points="904,547 906,547 957,547 958,624 932,614 853,650 837,675 828,677 817,676 815,676 807,675 798,674 790,672 783,668 778,663 771,660 764,655 760,648 759,640 759,634 760,628 765,621 773,615 778,609 787,604 788,603 798,601 806,601 808,601 814,601 820,600 827,599 832,596 839,594 853,587 857,583 863,579 866,578 872,580 874,585 877,586 883,584 887,580 890,577 892,573 892,571 893,569 895,566 893,564 894,561 896,558 899,556 901,554 904,551 904,551 903,549 903,548 "/>
 </g>
</svg>
