<?xml version="1.0" encoding="UTF-8"?>
<!DOCTYPE svg PUBLIC "-//W3C//DTD SVG 1.1//EN" "http://www.w3.org/Graphics/SVG/1.1/DTD/svg11.dtd">
<!-- Creator: CorelDRAW X8 -->
<svg xmlns="http://www.w3.org/2000/svg" xml:space="preserve" width="1000px" height="900px" version="1.1" style="shape-rendering:geometricPrecision; text-rendering:geometricPrecision; image-rendering:optimizeQuality; fill-rule:evenodd; clip-rule:evenodd"
viewBox="0 0 1000 900"
 xmlns:xlink="http://www.w3.org/1999/xlink">
 <defs>
  <style type="text/css">
   <![CDATA[
    .str0 {stroke:#388036;stroke-width:3.50277;stroke-linecap:square;stroke-linejoin:bevel}
    .fil0 {fill:none}
    .fil1 {fill:#4DAF4A}
   ]]>
  </style>
 </defs>
 <g id="Capa_x0020_1">
  <metadata id="CorelCorpID_0Corel-Layer"/>
  <rect class="fil0" width="1000" height="900"/>
  <polygon class="fil1 str0" points="963,548 963,627 933,614 853,650 838,676 836,740 835,801 845,809 844,820 824,847 805,871 805,871 805,870 805,868 805,867 804,866 803,866 802,866 800,865 799,864 798,863 796,861 796,860 794,858 792,853 789,852 787,851 785,851 783,852 780,850 778,847 776,844 772,841 770,837 751,835 748,841 743,848 741,855 740,862 742,866 736,872 731,873 723,871 710,867 701,867 693,865 689,863 689,852 682,847 677,828 672,809 629,754 631,732 681,728 711,716 746,686 753,670 795,634 804,637 844,597 861,595 869,585 872,582 877,586 882,584 887,580 892,575 894,567 893,564 895,558 900,554 903,548 "/>
 </g>
</svg>
