<?xml version="1.0" encoding="UTF-8"?>
<!DOCTYPE svg PUBLIC "-//W3C//DTD SVG 1.1//EN" "http://www.w3.org/Graphics/SVG/1.1/DTD/svg11.dtd">
<!-- Creator: CorelDRAW X8 -->
<svg xmlns="http://www.w3.org/2000/svg" xml:space="preserve" width="1000px" height="900px" version="1.1" style="shape-rendering:geometricPrecision; text-rendering:geometricPrecision; image-rendering:optimizeQuality; fill-rule:evenodd; clip-rule:evenodd"
viewBox="0 0 1000 900"
 xmlns:xlink="http://www.w3.org/1999/xlink">
 <defs>
  <style type="text/css">
   <![CDATA[
    .str0 {stroke:#388036;stroke-width:3.50277;stroke-linecap:square;stroke-linejoin:bevel}
    .fil0 {fill:none}
    .fil1 {fill:#4DAF4A}
   ]]>
  </style>
 </defs>
 <g id="Capa_x0020_1">
  <metadata id="CorelCorpID_0Corel-Layer"/>
  <rect class="fil0" width="1000" height="900"/>
  <polygon class="fil1 str0" points="848,552 859,563 864,573 873,583 876,585 880,583 884,582 887,581 889,576 891,574 892,570 894,567 892,564 894,561 896,559 900,556 903,553 903,548 958,549 958,626 962,754 945,787 929,810 921,815 908,818 892,819 878,824 862,836 853,841 841,853 826,875 815,872 802,865 791,853 783,850 777,845 770,838 752,836 742,855 738,871 729,872 720,870 704,866 689,862 684,861 680,852 673,848 665,840 659,837 658,836 651,830 646,832 641,839 636,840 630,844 624,845 617,845 610,844 605,843 602,840 602,832 593,833 587,833 578,831 577,820 588,810 589,789 586,770 588,739 599,729 629,717 659,705 692,685 710,668 721,653 736,632 742,623 752,609 766,595 785,584 807,571 832,563 "/>
 </g>
</svg>
