<?xml version="1.0" encoding="UTF-8"?>
<!DOCTYPE svg PUBLIC "-//W3C//DTD SVG 1.1//EN" "http://www.w3.org/Graphics/SVG/1.1/DTD/svg11.dtd">
<!-- Creator: CorelDRAW X8 -->
<svg xmlns="http://www.w3.org/2000/svg" xml:space="preserve" width="1000px" height="900px" version="1.1" style="shape-rendering:geometricPrecision; text-rendering:geometricPrecision; image-rendering:optimizeQuality; fill-rule:evenodd; clip-rule:evenodd"
viewBox="0 0 1000 900"
 xmlns:xlink="http://www.w3.org/1999/xlink">
 <defs>
  <style type="text/css">
   <![CDATA[
    .str0 {stroke:#388036;stroke-width:3.50277;stroke-linecap:square;stroke-linejoin:bevel}
    .fil0 {fill:none}
    .fil1 {fill:#4DAF4A}
   ]]>
  </style>
 </defs>
 <g id="Capa_x0020_1">
  <metadata id="CorelCorpID_0Corel-Layer"/>
  <rect class="fil0" width="1000" height="900"/>
  <polygon class="fil1 str0" points="630,461 632,459 636,456 639,455 642,456 646,456 648,457 650,458 650,460 649,463 650,465 651,466 652,468 655,471 655,475 655,473 655,479 658,484 656,486 658,489 666,490 672,489 678,489 682,490 686,490 693,490 697,490 702,491 705,492 708,492 712,493 715,495 717,495 720,496 722,497 725,498 727,500 730,504 732,509 733,515 736,520 738,526 743,530 745,537 746,538 751,542 756,548 762,550 766,553 768,559 768,567 768,568 768,577 767,578 765,584 763,587 758,593 753,598 751,599 746,607 741,614 737,618 736,618 733,619 729,623 725,624 722,627 717,629 712,632 704,635 695,638 690,640 686,641 678,641 677,641 672,643 668,643 662,642 661,642 653,644 648,644 635,643 632,645 629,645 623,646 621,646 615,646 608,650 603,655 600,662 599,666 597,669 595,670 594,671 590,674 588,679 583,684 580,690 573,693 569,695 568,692 573,683 576,678 578,675 579,671 580,668 582,666 583,662 585,658 587,654 588,652 590,650 592,646 595,643 595,643 599,639 599,640 601,634 603,632 606,628 609,623 609,622 611,617 614,610 614,600 614,599 616,591 616,589 618,581 618,580 619,576 619,574 619,567 620,559 623,552 625,546 626,541 628,532 628,530 628,530 628,529 629,526 630,525 630,524 631,522 631,522 631,521 631,518 631,517 631,514 631,513 630,512 630,508 630,508 633,502 635,499 635,498 635,497 636,493 635,492 636,484 637,477 636,475 632,472 628,468 628,467 629,463 "/>
 </g>
</svg>
