<?xml version="1.0" encoding="UTF-8"?>
<!DOCTYPE svg PUBLIC "-//W3C//DTD SVG 1.1//EN" "http://www.w3.org/Graphics/SVG/1.1/DTD/svg11.dtd">
<!-- Creator: CorelDRAW X8 -->
<svg xmlns="http://www.w3.org/2000/svg" xml:space="preserve" width="1000px" height="900px" version="1.1" style="shape-rendering:geometricPrecision; text-rendering:geometricPrecision; image-rendering:optimizeQuality; fill-rule:evenodd; clip-rule:evenodd"
viewBox="0 0 1000 900"
 xmlns:xlink="http://www.w3.org/1999/xlink">
 <defs>
  <style type="text/css">
   <![CDATA[
    .str0 {stroke:#388036;stroke-width:3.50277;stroke-linecap:square;stroke-linejoin:bevel}
    .fil0 {fill:none}
    .fil1 {fill:#4DAF4A}
   ]]>
  </style>
 </defs>
 <g id="Capa_x0020_1">
  <metadata id="CorelCorpID_0Corel-Layer"/>
  <rect class="fil0" width="1000" height="900"/>
  <polygon class="fil1 str0" points="633,119 637,120 621,138 606,144 595,153 587,170 586,191 583,209 584,233 585,254 585,267 583,281 583,301 583,317 584,334 587,347 590,363 590,373 592,401 592,421 600,440 605,454 609,475 611,492 614,509 613,518 603,523 590,520 586,511 580,498 576,486 570,476 566,460 562,448 555,442 547,435 535,427 527,418 516,412 510,400 505,386 498,379 494,369 492,358 488,346 487,330 489,311 489,298 489,285 486,272 485,258 485,244 488,233 493,220 491,207 493,198 500,187 502,172 502,162 504,154 505,148 507,142 506,142 505,140 502,140 498,141 496,139 496,134 497,128 498,125 501,123 505,123 511,123 518,123 522,121 525,119 528,118 535,116 539,115 546,119 553,120 558,122 564,123 570,122 577,120 578,119 582,117 589,117 597,118 606,118 618,119 628,119 "/>
 </g>
</svg>
