<?xml version="1.0" encoding="UTF-8"?>
<!DOCTYPE svg PUBLIC "-//W3C//DTD SVG 1.1//EN" "http://www.w3.org/Graphics/SVG/1.1/DTD/svg11.dtd">
<!-- Creator: CorelDRAW X8 -->
<svg xmlns="http://www.w3.org/2000/svg" xml:space="preserve" width="1000px" height="900px" version="1.1" style="shape-rendering:geometricPrecision; text-rendering:geometricPrecision; image-rendering:optimizeQuality; fill-rule:evenodd; clip-rule:evenodd"
viewBox="0 0 1000 900"
 xmlns:xlink="http://www.w3.org/1999/xlink">
 <defs>
  <style type="text/css">
   <![CDATA[
    .str0 {stroke:#388036;stroke-width:3.50277;stroke-linecap:square;stroke-linejoin:bevel}
    .fil0 {fill:none}
    .fil1 {fill:#4DAF4A}
   ]]>
  </style>
 </defs>
 <g id="Capa_x0020_1">
  <metadata id="CorelCorpID_0Corel-Layer"/>
  <rect class="fil0" width="1000" height="900"/>
  <polygon class="fil1 str0" points="374,442 374,435 374,430 374,429 375,422 376,421 376,421 379,415 379,415 385,409 385,409 392,402 401,395 402,394 402,394 410,391 411,390 412,390 422,390 428,390 437,391 445,394 446,394 453,396 458,399 461,401 464,403 466,405 469,406 471,408 474,411 475,412 476,412 477,416 479,418 480,420 481,422 482,424 483,427 484,431 486,435 485,439 484,442 484,448 484,448 482,453 482,453 480,459 479,463 475,471 473,475 464,480 456,483 446,486 432,488 421,489 420,489 410,489 400,487 390,481 386,476 383,471 379,463 376,456 375,449 "/>
 </g>
</svg>
