<?xml version="1.0" encoding="UTF-8"?>
<!DOCTYPE svg PUBLIC "-//W3C//DTD SVG 1.1//EN" "http://www.w3.org/Graphics/SVG/1.1/DTD/svg11.dtd">
<!-- Creator: CorelDRAW X8 -->
<svg xmlns="http://www.w3.org/2000/svg" xml:space="preserve" width="1000px" height="900px" version="1.1" style="shape-rendering:geometricPrecision; text-rendering:geometricPrecision; image-rendering:optimizeQuality; fill-rule:evenodd; clip-rule:evenodd"
viewBox="0 0 1000 900"
 xmlns:xlink="http://www.w3.org/1999/xlink">
 <defs>
  <style type="text/css">
   <![CDATA[
    .str0 {stroke:black;stroke-width:2.99934;stroke-linecap:square;stroke-linejoin:bevel}
    .fil0 {fill:none}
    .fil1 {fill:white}
   ]]>
  </style>
 </defs>
 <g id="Capa_x0020_1">
  <metadata id="CorelCorpID_0Corel-Layer"/>
  <rect class="fil0" width="1000" height="900"/>
  <polygon class="fil1 str0" points="458,145 453,146 453,147 452,148 449,150 448,150 446,150 443,149 441,150 434,147 433,147 431,147 430,149 428,149 428,148 427,149 425,146 421,143 420,144 420,145 419,145 418,145 417,146 418,147 417,148 417,149 417,150 417,150 418,151 417,151 418,151 419,152 419,153 421,155 421,156 420,159 420,159 420,160 421,160 420,161 421,161 421,162 420,162 420,164 419,164 419,165 419,166 419,167 418,166 418,168 417,167 418,169 418,169 417,170 416,170 417,172 416,172 416,174 415,175 416,175 415,176 415,176 414,177 414,179 409,210 400,177 398,174 398,173 396,169 390,167 387,166 315,183 313,184 311,186 308,186 305,184 304,184 303,181 302,177 302,177 301,175 301,175 300,174 299,173 296,172 293,171 293,171 293,172 292,171 291,171 288,173 287,170 285,169 285,170 284,169 283,170 281,170 281,167 280,166 281,165 280,162 279,164 279,165 278,167 278,168 276,170 276,171 273,172 273,173 272,175 271,175 271,176 268,179 268,181 265,182 262,186 262,189 262,190 261,193 260,194 259,197 256,201 252,203 251,204 246,207 244,208 240,211 238,212 236,213 234,215 231,215 228,213 226,213 225,214 224,212 216,209 212,207 210,206 208,206 205,205 204,204 201,204 200,203 199,202 197,202 196,203 195,203 193,203 191,201 189,202 184,203 183,203 181,201 179,201 177,199 174,198 174,197 173,196 175,192 175,186 182,160 198,151 208,153 212,156 217,147 300,126 299,125 300,124 301,124 302,123 303,124 305,123 305,122 306,121 306,119 307,117 307,116 308,116 307,115 307,114 309,113 309,115 311,115 312,116 312,116 314,115 316,115 318,114 318,113 317,110 319,108 318,108 316,107 319,103 319,102 317,103 317,103 318,100 318,100 317,100 317,99 317,97 319,97 319,96 321,95 320,93 321,89 321,87 319,84 320,82 321,81 321,79 323,78 322,77 322,75 322,74 322,73 322,72 322,71 324,70 324,68 326,68 326,66 326,65 326,64 327,62 326,60 327,59 328,59 329,57 330,53 332,49 332,46 334,43 334,42 333,41 333,40 332,39 332,37 333,33 333,32 333,30 332,28 332,25 332,24 333,24 337,24 338,21 347,26 382,38 392,49 391,63 428,67 463,108 463,110 462,115 462,119 462,122 461,130 459,135 459,142 459,144 "/>
  <polygon class="fil1 str0" points="458,145 459,144 459,142 459,135 461,130 462,122 462,119 462,115 463,110 463,108 464,110 467,110 469,112 470,112 471,114 472,114 474,116 476,118 479,119 480,120 482,121 489,120 489,119 490,118 491,117 492,117 493,118 495,118 498,119 500,121 501,121 503,121 508,121 509,121 511,120 514,120 516,119 518,119 520,117 522,117 523,117 524,116 525,117 527,117 528,116 529,117 531,117 531,116 532,116 531,115 532,114 531,113 532,113 533,112 534,111 534,110 561,116 566,114 652,113 651,115 651,115 649,117 649,122 650,125 650,126 650,128 649,133 647,135 642,136 641,139 640,150 638,156 638,165 636,170 636,171 635,172 636,175 636,178 639,184 639,185 638,186 635,187 634,188 635,191 633,194 628,197 623,200 623,201 622,209 618,221 616,224 615,228 615,229 612,234 611,235 610,237 608,238 608,240 605,244 605,250 606,252 608,254 608,255 590,253 586,254 580,254 578,254 575,256 573,256 562,249 554,247 549,243 547,236 542,233 538,233 537,233 537,233 536,232 529,230 521,230 518,229 514,230 496,228 457,221 409,210 414,179 414,177 415,176 415,176 416,175 415,175 416,174 416,172 417,172 416,170 417,170 418,169 418,169 417,167 418,168 418,166 419,167 419,166 419,165 419,164 420,164 420,162 421,162 421,161 420,161 421,160 420,160 420,159 420,159 421,156 421,155 419,153 419,152 418,151 417,151 418,151 417,150 417,150 417,149 417,148 418,147 417,146 418,145 419,145 420,145 420,144 421,143 425,146 427,149 428,148 428,149 430,149 431,147 433,147 434,147 441,150 443,149 446,150 448,150 449,150 452,148 453,147 453,146 "/>
  <polygon class="fil1 str0" points="280,162 281,165 280,166 281,167 281,170 283,170 284,169 285,170 285,169 287,170 288,173 291,171 292,171 293,172 293,171 293,171 296,172 299,173 300,174 301,175 301,175 302,177 302,177 303,181 304,184 306,184 308,186 311,186 313,184 315,183 387,166 390,167 396,169 398,171 398,173 398,174 400,177 409,210 457,221 457,223 458,226 456,229 456,233 457,236 455,242 455,248 454,250 445,259 440,256 438,262 429,276 427,275 427,274 425,274 424,273 420,271 405,266 406,267 404,270 402,272 401,274 399,275 398,277 396,279 395,282 394,283 393,284 391,285 390,286 389,287 388,287 387,288 384,288 382,290 380,290 378,291 372,291 368,293 367,293 367,294 366,294 364,294 360,293 358,294 353,294 352,294 352,293 351,292 350,291 347,293 346,296 346,298 343,300 343,301 342,301 341,302 340,302 338,303 336,302 335,300 330,299 327,297 311,298 305,303 301,315 297,320 274,308 274,310 273,311 272,311 272,312 271,312 272,314 272,315 273,320 272,322 272,324 271,326 267,329 267,330 268,331 259,330 258,330 257,330 255,331 256,332 255,333 254,333 254,334 251,334 249,339 248,340 245,340 243,340 241,339 237,340 235,340 233,340 229,342 226,346 228,364 228,390 105,390 47,334 64,306 98,286 94,251 111,251 124,236 163,223 169,220 168,216 168,209 173,196 174,197 174,198 177,199 179,201 181,201 183,203 184,203 189,202 191,201 193,203 195,203 196,203 197,202 199,202 200,203 201,204 204,204 205,205 208,206 210,206 212,207 216,209 224,212 225,214 226,213 228,213 231,215 232,215 234,215 236,213 238,212 240,211 244,208 246,207 251,204 252,203 256,201 259,197 260,194 261,193 262,190 262,189 262,186 265,182 268,181 268,179 271,176 271,175 272,175 273,173 273,172 276,171 276,170 278,168 278,167 279,165 279,164 "/>
  <polygon class="fil1 str0" points="457,221 497,228 514,230 518,229 521,230 529,230 536,232 537,233 537,233 538,233 539,233 542,233 547,236 549,243 554,247 562,249 573,256 575,256 578,254 580,254 586,254 590,253 608,255 606,262 605,267 604,271 603,273 602,276 602,277 599,281 597,284 596,285 594,290 593,293 591,296 592,299 590,301 590,303 589,303 589,305 584,313 582,314 579,315 574,319 554,319 553,322 550,337 542,343 533,348 529,354 527,359 526,360 524,366 522,368 513,372 504,377 502,384 498,388 497,394 496,403 495,405 495,410 497,412 498,414 498,417 494,423 492,428 492,430 490,433 490,435 491,436 491,438 491,440 489,442 489,443 490,444 490,446 490,449 490,450 490,451 487,457 485,460 486,466 489,469 489,471 490,473 487,477 485,482 485,483 484,484 483,486 482,487 483,488 485,489 485,491 485,493 486,495 487,498 486,502 484,504 484,509 482,511 483,515 480,516 478,516 474,514 472,511 470,510 467,509 463,504 461,504 460,503 459,503 458,504 459,505 459,505 457,506 456,506 456,508 455,509 455,508 455,510 455,510 456,511 454,511 455,512 454,513 454,513 453,516 454,517 452,519 451,521 448,522 446,524 445,528 447,531 450,533 449,535 452,536 448,556 446,556 443,559 442,561 442,562 442,562 441,564 441,566 440,566 440,568 438,569 437,569 436,569 437,571 434,577 432,579 431,580 430,582 429,582 429,582 429,583 429,582 427,583 426,584 425,585 422,587 420,590 419,591 418,591 417,592 416,593 417,593 418,595 417,596 416,596 417,595 416,594 416,594 415,594 414,593 412,594 410,594 408,596 406,596 398,599 405,546 395,542 395,541 390,538 385,537 383,534 377,531 377,529 375,529 371,524 365,520 363,520 361,519 358,519 357,519 354,518 353,517 350,518 348,515 345,509 348,505 354,494 357,490 361,480 363,476 366,473 367,471 369,466 373,458 372,456 373,453 373,443 371,439 345,412 320,390 228,390 228,364 226,346 229,342 233,340 235,340 237,340 241,339 243,340 245,340 248,340 249,339 251,334 254,334 254,333 255,333 256,332 255,331 257,330 258,330 259,330 268,331 267,330 267,329 271,326 272,324 272,322 273,320 272,315 272,314 271,312 272,312 272,311 273,311 274,310 274,308 297,320 301,315 305,303 311,298 327,297 330,299 335,300 336,302 338,303 340,302 341,302 342,301 343,301 343,300 346,298 346,296 347,293 350,291 351,292 352,293 352,294 353,294 358,294 360,293 364,294 366,294 367,294 367,293 368,293 372,291 378,291 380,290 382,290 384,288 387,288 388,287 389,287 390,286 391,285 393,284 394,283 395,282 396,279 398,277 399,275 401,274 402,272 404,270 406,267 405,266 420,271 424,273 425,274 427,274 427,275 429,276 438,262 440,256 445,259 454,250 455,248 455,242 457,236 456,233 456,229 458,226 457,223 "/>
  <polygon class="fil1 str0" points="608,254 609,255 609,257 613,263 620,268 623,269 625,269 626,270 624,274 621,278 620,282 617,286 617,287 616,293 617,297 620,305 621,306 620,309 620,314 621,316 626,324 629,325 632,325 633,326 632,328 633,332 631,334 632,339 631,341 632,346 635,349 636,353 636,358 634,361 634,363 635,364 638,366 640,371 642,373 648,376 652,376 654,377 654,381 655,381 657,382 675,392 683,394 684,395 686,398 690,400 690,401 690,402 687,404 688,405 687,407 687,407 688,409 689,412 689,414 688,416 688,419 688,419 689,420 688,422 688,423 689,427 686,430 686,432 688,434 690,435 691,435 694,437 694,440 693,443 691,445 691,446 690,448 689,449 689,450 687,451 684,449 682,450 681,452 681,455 677,459 674,461 672,464 671,470 670,470 669,471 666,475 665,476 664,478 664,479 662,480 659,483 657,486 605,509 605,508 601,506 601,505 598,503 593,501 591,502 588,502 586,500 584,497 581,495 580,493 576,491 574,491 571,490 570,491 568,490 565,490 559,490 557,488 555,486 546,485 498,505 497,506 493,507 491,509 489,511 485,513 485,514 483,515 482,511 484,509 484,504 486,502 487,498 486,495 485,493 485,491 485,489 483,488 482,487 483,486 484,484 485,483 485,482 487,477 490,473 489,471 489,469 486,466 485,460 487,457 490,451 490,450 490,449 490,446 490,444 489,443 489,442 491,440 491,438 491,436 490,435 490,433 492,430 492,428 494,423 498,417 498,414 497,412 495,410 495,405 496,403 497,394 498,388 502,384 504,377 513,372 522,368 524,366 526,360 527,359 529,354 533,348 542,343 550,337 553,322 554,319 574,319 579,315 582,314 584,313 589,305 589,303 590,303 590,301 592,299 591,296 593,293 594,290 596,285 597,284 599,281 602,277 602,276 603,273 604,271 605,267 606,262 "/>
  <polygon class="fil1 str0" points="228,390 320,390 345,412 370,438 372,440 373,443 373,453 372,456 373,458 369,466 367,471 366,473 363,476 361,480 357,490 354,494 348,505 345,509 348,515 350,518 347,519 344,521 343,527 343,529 343,530 340,537 335,538 333,540 330,544 329,547 329,550 327,552 327,555 327,556 326,560 326,561 324,563 322,566 321,571 320,572 319,573 316,577 316,580 305,592 297,596 294,601 294,604 294,614 292,619 292,620 292,622 295,624 297,627 296,630 297,636 298,641 298,641 293,643 291,647 291,648 293,651 296,655 296,659 297,662 296,665 296,667 296,668 295,673 295,676 296,678 295,681 292,685 295,687 300,687 302,689 298,693 298,697 297,702 293,706 292,715 294,718 295,720 295,721 293,722 292,727 290,731 285,732 279,732 276,737 273,737 261,740 256,745 252,751 251,751 246,753 245,755 244,755 241,755 240,754 240,752 237,750 233,749 232,750 227,750 224,750 223,749 218,748 215,747 213,747 209,745 207,743 204,741 200,736 197,735 192,734 191,733 188,732 185,726 181,722 168,722 154,713 143,697 139,691 138,688 139,685 136,685 130,685 128,684 125,685 121,688 121,688 120,688 117,684 118,683 114,677 109,670 108,666 107,663 104,659 35,608 105,390 "/>
  <polygon class="fil1 str0" points="687,451 686,454 685,455 686,458 690,459 692,460 695,459 696,460 697,461 697,467 699,468 699,472 701,475 706,476 711,475 713,476 718,477 721,474 722,472 722,471 722,471 725,473 726,477 728,479 729,481 737,489 738,493 737,497 738,498 740,499 740,500 739,502 738,503 738,504 738,507 738,508 737,511 737,515 736,519 738,520 738,521 740,524 742,524 744,524 748,526 746,533 747,535 747,536 749,537 750,537 754,540 755,541 755,542 756,545 755,552 754,554 754,555 752,558 751,559 750,560 749,564 751,565 750,567 749,568 746,569 741,570 740,572 740,575 741,577 739,578 737,583 739,589 737,590 737,592 737,593 738,594 737,597 733,601 732,604 732,606 734,607 734,609 732,612 730,612 729,610 728,610 727,609 726,610 725,609 723,609 721,609 720,609 717,608 714,605 709,605 709,605 707,604 706,603 705,602 702,602 702,600 698,594 693,591 692,590 690,588 691,586 689,584 688,583 686,583 686,579 683,575 682,573 679,572 677,571 676,571 673,567 671,566 669,565 670,562 668,551 666,550 664,548 663,545 662,542 659,538 659,537 660,535 660,533 659,530 659,528 659,526 663,523 665,521 666,517 664,506 661,506 660,505 660,504 657,503 657,502 657,500 654,487 657,486 659,483 662,480 664,479 664,478 665,476 666,475 668,472 670,470 671,470 672,464 674,461 677,459 681,455 681,452 682,450 684,449 "/>
  <polygon class="fil1 str0" points="546,485 555,486 557,488 559,490 565,490 568,490 570,491 571,490 574,491 576,491 580,493 581,495 584,497 586,500 588,502 591,502 593,501 598,503 601,505 601,506 605,508 605,509 654,487 657,500 657,502 657,503 660,504 660,505 661,506 664,506 665,508 666,517 665,521 663,523 659,526 659,530 660,533 660,535 659,538 662,542 663,545 664,548 666,550 668,551 670,562 669,565 671,566 673,567 676,571 677,571 679,572 682,573 683,575 686,579 686,583 688,583 689,584 691,586 691,588 692,590 693,591 697,593 702,599 702,600 702,602 701,603 700,603 699,603 698,603 696,603 696,604 692,606 692,607 689,609 688,611 685,611 684,612 681,614 682,615 681,617 681,617 682,618 681,618 681,619 680,619 678,622 678,626 677,628 677,632 678,633 677,635 678,638 680,638 680,639 679,642 680,642 678,643 679,645 678,646 677,647 678,648 678,649 678,650 676,650 673,647 669,646 660,638 656,636 655,634 653,632 651,632 650,631 650,631 648,630 645,628 644,629 642,628 642,629 640,629 637,630 636,632 636,633 635,633 636,634 635,634 634,633 633,633 633,634 631,635 631,637 631,638 629,639 628,640 628,640 626,641 625,641 624,640 623,639 623,639 619,639 615,636 613,636 611,633 608,633 607,633 605,631 600,630 594,628 594,626 597,621 597,618 597,616 597,612 601,606 595,604 593,604 589,609 585,609 584,608 582,604 579,603 574,603 572,602 571,603 571,602 564,600 560,598 560,596 559,595 559,591 553,589 553,586 554,580 555,577 554,576 555,574 555,570 552,564 548,562 543,558 543,553 541,550 539,549 538,548 536,541 536,535 535,531 535,529 534,527 532,522 516,506 507,504 505,504 502,505 499,504 "/>
  <polygon class="fil1 str0" points="459,503 461,504 463,504 467,509 472,511 474,513 475,515 478,516 479,516 484,515 485,513 489,511 491,508 493,507 497,506 498,505 499,504 502,505 505,504 507,504 516,506 532,522 534,527 535,529 535,531 536,535 536,541 538,548 539,549 541,550 543,553 543,558 548,562 552,564 555,570 555,574 554,576 555,577 554,580 553,586 553,589 559,591 559,595 560,596 560,598 564,600 571,602 571,603 572,602 574,603 579,603 582,604 584,608 585,609 589,609 593,604 595,604 601,606 597,612 597,616 597,618 597,621 594,626 594,628 600,630 605,631 607,633 608,633 611,633 613,636 615,636 618,638 619,640 619,641 618,644 618,645 618,646 619,651 620,651 618,653 615,652 614,650 613,648 613,648 612,647 612,646 605,647 604,648 602,649 601,650 605,653 605,653 604,658 606,661 605,662 605,666 604,668 603,671 602,670 599,670 598,669 597,670 596,671 595,672 592,674 589,674 587,675 586,674 585,675 584,674 581,676 581,679 581,686 580,687 580,688 576,690 574,690 574,696 576,700 577,701 576,702 571,701 565,698 563,697 559,698 554,697 553,697 552,698 542,699 542,698 539,697 539,695 537,695 536,694 535,694 535,694 533,694 533,693 530,694 530,693 530,692 527,692 527,690 526,690 526,688 525,683 525,682 526,681 526,680 527,679 526,678 527,677 526,676 527,674 525,673 525,671 526,666 527,665 528,662 528,659 525,657 524,655 520,653 518,649 516,646 513,645 512,642 503,645 502,647 499,652 497,658 496,663 496,666 497,668 497,671 496,673 495,678 494,681 495,686 494,688 493,690 491,690 488,697 487,698 485,702 483,704 482,705 480,709 480,710 478,710 473,710 470,709 464,703 460,701 454,700 446,694 444,694 433,694 431,694 421,695 420,694 423,689 424,687 424,683 417,683 415,684 413,685 409,687 407,686 407,683 406,681 406,676 405,674 404,668 400,657 394,638 394,630 398,599 406,596 408,596 410,594 412,594 414,593 415,594 416,594 416,594 417,595 416,596 417,596 418,595 417,593 416,593 417,592 418,591 419,591 420,590 422,587 425,585 426,584 427,583 429,582 429,583 429,582 429,582 430,582 431,580 432,579 434,577 437,571 436,569 437,569 438,569 440,568 440,566 441,566 441,564 442,562 442,562 442,561 443,559 446,556 448,556 452,536 449,535 450,533 447,531 445,529 445,527 446,524 448,522 451,521 452,519 454,517 453,516 454,513 454,513 455,512 454,511 456,511 455,510 455,510 455,508 455,509 456,508 456,506 457,506 459,505 459,505 458,504 "/>
  <polygon class="fil1 str0" points="794,710 794,708 795,709 797,709 797,706 800,705 800,702 802,701 801,700 801,699 805,698 804,696 801,697 802,694 802,691 805,690 808,692 809,691 809,689 806,688 808,685 810,685 808,683 810,681 810,678 811,678 808,675 809,672 810,672 812,673 812,671 813,671 814,671 812,669 813,667 811,667 815,663 815,656 816,655 819,656 820,655 819,652 820,651 821,649 822,650 821,647 824,649 825,647 823,643 826,640 825,637 832,638 834,631 837,629 836,625 837,619 840,616 838,614 838,611 841,610 847,609 846,607 847,606 856,602 864,602 864,602 863,599 863,598 866,596 869,593 871,588 877,587 880,584 881,582 884,582 887,578 891,575 892,574 890,572 894,567 892,566 890,566 890,565 893,562 895,557 900,555 902,550 901,547 963,547 963,716 962,726 965,735 964,744 965,751 961,755 961,759 957,766 956,770 953,779 950,781 947,788 943,793 943,795 941,800 934,806 932,810 930,818 929,817 921,816 915,822 902,822 892,824 886,822 881,824 874,831 872,833 864,835 862,839 860,845 857,847 849,846 850,840 852,832 850,829 845,825 845,821 850,806 849,803 852,794 853,792 858,788 860,784 857,786 856,788 851,790 850,792 842,790 835,790 825,794 822,793 820,794 815,795 811,794 808,795 801,794 795,792 792,790 790,790 790,791 789,790 787,789 787,788 786,788 786,784 788,785 789,783 789,779 790,781 791,779 791,777 792,778 793,777 795,772 794,771 796,770 795,769 796,769 795,766 796,765 796,764 797,765 797,762 798,762 800,758 799,756 801,756 801,752 800,750 801,748 801,743 797,740 798,738 797,737 797,734 795,732 793,727 794,724 792,722 794,721 794,718 795,716 794,714 796,714 797,712 "/>
  <polygon class="fil1 str0" points="609,647 612,647 614,650 616,652 618,653 621,651 624,653 627,654 627,656 632,657 632,658 635,661 640,662 644,665 652,669 654,676 653,678 652,680 648,681 646,681 645,684 641,685 640,687 640,693 645,693 653,686 658,685 659,686 666,685 667,686 667,692 673,696 674,699 675,703 673,704 673,706 671,706 673,709 670,709 671,711 669,712 670,715 668,715 668,719 664,720 660,722 655,721 655,720 651,721 649,718 648,720 647,718 646,724 644,726 641,727 640,730 636,730 635,732 638,732 643,735 644,744 642,756 643,757 643,759 646,763 637,759 634,762 630,763 639,770 637,777 634,775 628,774 619,775 616,774 614,772 611,772 603,770 593,777 590,776 583,776 578,774 575,776 573,775 572,775 565,781 560,783 551,781 534,782 518,777 505,769 504,767 497,763 498,759 496,757 493,753 491,752 486,747 486,744 490,741 486,738 489,729 487,726 486,720 486,718 480,715 480,714 482,712 480,710 482,705 485,702 491,690 494,688 494,681 497,668 496,666 496,663 497,658 502,647 512,642 513,645 516,646 518,649 520,653 524,655 525,657 528,659 528,662 526,666 525,671 525,673 527,674 527,679 525,683 526,690 527,692 530,692 530,694 535,694 539,695 542,699 554,697 559,698 563,697 565,698 571,701 576,702 577,701 574,696 574,690 580,688 581,686 581,676 584,674 592,674 596,671 598,669 599,670 602,670 603,671 606,661 604,658 605,653 601,650 605,647 "/>
  <polygon class="fil1 str0" points="794,710 797,712 796,714 794,714 795,716 794,718 794,721 792,722 794,724 793,727 795,732 797,734 797,737 798,738 797,740 801,743 801,748 800,750 801,752 801,756 799,756 800,758 798,762 797,762 797,765 796,764 796,765 795,766 796,769 795,769 796,770 794,771 795,772 793,777 792,778 791,777 791,779 790,781 789,779 789,783 788,785 786,784 786,788 787,788 787,789 789,790 790,791 790,790 792,790 795,792 801,794 808,795 811,794 815,795 820,794 822,793 825,794 835,790 842,790 850,792 851,790 856,788 857,786 860,784 858,788 853,792 852,794 849,803 850,806 845,821 845,825 850,829 852,833 850,840 849,846 846,854 844,862 838,875 835,877 830,878 827,879 821,877 820,874 815,872 805,872 804,867 803,866 800,865 797,863 791,854 788,852 782,852 780,850 775,844 771,841 770,838 753,835 752,835 752,836 722,829 738,809 709,802 705,804 702,804 699,796 697,793 697,790 694,789 692,787 688,781 689,778 691,776 692,773 691,770 687,760 685,753 687,750 685,745 693,748 691,697 697,697 699,699 706,698 707,700 710,700 710,698 713,697 717,697 720,698 722,696 727,697 732,696 744,701 749,707 752,708 753,710 753,715 755,717 763,719 764,719 767,720 771,720 773,722 775,721 775,719 776,720 777,720 777,718 779,720 779,717 781,718 781,715 783,714 784,716 785,715 786,713 787,714 788,712 790,712 791,713 792,712 790,711 "/>
  <polygon class="fil1 str0" points="668,715 669,715 670,715 670,714 669,712 670,711 671,711 670,709 670,710 671,709 673,709 671,706 673,706 673,704 674,703 676,703 677,701 677,700 679,700 679,699 680,700 681,700 682,701 683,700 684,701 684,700 686,700 685,698 685,698 689,698 691,697 693,748 691,747 689,746 685,745 687,750 685,753 687,760 690,767 691,770 692,773 691,776 689,778 688,780 689,782 689,782 689,784 691,785 692,787 694,789 697,790 697,793 699,794 699,796 700,797 701,799 702,804 699,802 696,803 693,801 687,801 686,800 685,799 683,799 680,798 680,799 679,798 679,798 678,798 677,798 675,797 674,797 674,797 673,797 673,796 672,796 671,796 670,796 669,795 669,795 668,795 667,795 667,794 666,794 666,794 665,794 666,792 666,791 660,786 658,781 654,778 654,777 652,778 649,778 649,779 646,780 645,779 640,778 638,777 637,777 639,770 633,766 630,763 632,762 633,761 634,762 634,760 637,759 646,763 644,760 643,759 643,757 642,757 642,756 643,753 642,751 643,749 643,747 644,744 644,744 644,740 643,737 643,735 643,734 641,734 640,733 638,732 636,732 635,732 636,730 638,731 640,730 640,729 641,727 643,727 644,726 646,724 647,720 647,719 647,718 648,718 648,720 649,719 649,719 649,718 651,721 655,720 655,721 656,721 660,722 664,720 666,720 668,719 668,717 "/>
  <polygon class="fil1 str0" points="609,772 611,772 614,772 616,774 619,775 628,774 632,775 634,775 637,777 638,777 640,778 645,779 646,780 649,779 649,778 652,778 654,777 654,778 658,781 660,786 666,791 666,792 665,794 664,793 661,793 657,792 655,793 654,793 653,793 650,793 649,793 648,792 646,792 644,791 643,791 643,791 642,791 640,790 636,790 630,788 626,788 626,803 616,804 608,807 606,807 605,808 601,808 600,809 599,812 598,813 598,816 596,817 597,819 597,820 599,820 602,823 601,825 600,826 599,829 599,832 600,833 599,833 597,833 586,834 580,834 579,836 577,835 576,833 575,832 572,830 571,826 571,823 571,823 565,824 562,823 557,824 555,826 554,830 553,831 551,829 549,829 546,829 543,828 541,826 539,825 538,824 527,821 526,820 526,817 522,815 510,811 508,809 508,806 509,802 509,800 503,792 501,786 503,779 505,776 505,769 518,777 534,782 551,781 560,783 565,781 572,775 573,775 574,775 575,776 576,776 577,775 578,774 579,775 581,776 583,776 587,777 588,776 589,777 590,776 593,777 595,776 597,774 601,771 602,771 602,770 603,770 606,771 607,771 607,772 "/>
  <polygon class="fil1 str0" points="626,788 630,788 636,790 640,790 646,792 648,792 649,793 653,793 657,792 664,793 666,794 676,798 679,798 683,799 685,799 687,801 693,801 696,803 699,802 701,803 705,804 709,802 738,809 722,829 752,837 750,839 750,841 746,844 746,847 742,850 744,852 743,854 743,856 740,861 741,862 740,863 741,864 742,863 743,866 741,867 741,869 740,869 740,870 739,870 739,872 735,873 734,874 733,873 730,875 729,873 727,873 725,874 721,872 720,872 720,871 716,871 709,867 706,868 703,868 691,865 689,863 684,863 681,861 680,856 676,851 665,846 663,842 659,838 649,832 644,835 642,841 636,840 631,845 618,847 616,846 616,844 608,844 606,843 603,843 600,839 602,835 599,832 599,829 600,826 601,825 602,823 599,820 597,820 596,817 598,816 600,809 606,807 608,807 616,804 626,803 "/>
  <polygon class="fil1 str0" points="795,530 797,530 799,529 800,529 800,527 801,528 804,527 803,528 805,528 808,531 809,532 810,532 809,534 811,537 816,537 817,538 818,537 822,539 825,539 825,541 827,541 833,545 835,545 836,546 838,544 839,546 841,546 843,545 846,549 849,548 849,553 854,556 857,559 861,562 861,567 862,569 865,566 867,566 867,569 871,570 872,573 870,574 872,576 870,577 870,578 873,578 876,582 878,581 879,582 880,580 881,581 880,582 880,584 877,587 871,588 869,593 866,596 863,598 863,599 864,602 864,602 856,602 847,606 846,607 847,609 841,610 838,611 838,614 840,616 837,619 836,625 837,629 834,631 832,638 825,637 825,638 826,640 823,643 825,647 824,649 821,647 822,650 821,649 820,651 819,652 820,655 819,656 816,655 815,656 815,663 811,667 813,667 812,669 814,670 814,671 813,671 812,671 812,673 810,672 809,672 808,675 811,678 810,678 810,681 808,683 810,685 808,685 806,688 809,689 809,691 808,692 805,690 802,691 802,694 801,697 804,696 805,698 801,699 801,700 802,701 800,702 800,704 800,706 798,705 797,706 797,709 795,709 794,708 794,710 791,711 792,712 791,713 790,712 788,712 787,714 785,713 785,715 784,716 784,714 782,714 781,715 781,718 779,717 779,720 777,718 777,720 776,720 775,719 775,721 773,722 771,720 767,720 764,719 763,719 755,717 753,715 753,710 752,708 749,707 744,701 732,696 727,697 722,696 720,698 717,697 713,697 710,698 710,700 707,700 705,698 699,699 697,698 693,697 689,698 686,698 686,700 684,700 684,701 680,700 679,699 679,700 677,700 677,701 676,703 675,703 673,697 667,692 667,686 666,685 659,686 658,685 653,686 645,693 640,693 640,687 641,685 645,684 646,681 648,681 652,680 653,678 654,676 653,670 652,669 644,665 641,662 635,661 632,658 632,657 627,656 627,654 624,653 620,651 618,645 619,640 618,638 619,639 624,639 626,641 629,639 631,638 631,635 633,633 635,634 636,633 636,632 637,630 645,628 653,632 655,634 656,636 660,638 669,646 673,647 676,650 678,650 677,647 679,645 678,643 680,642 680,639 677,635 678,633 677,632 677,628 678,622 682,618 681,617 681,614 684,612 685,611 688,611 692,607 692,606 696,603 699,603 703,602 705,602 709,605 714,605 717,608 720,609 726,610 727,609 728,610 729,610 730,612 732,612 734,609 732,604 738,594 737,592 739,589 737,583 739,578 741,577 740,575 740,572 741,570 746,569 750,567 751,565 749,564 750,560 754,555 754,554 755,552 756,545 755,541 757,540 762,545 768,546 773,543 773,542 774,541 774,540 776,538 776,536 778,536 780,534 783,534 784,535 787,535 787,532 789,532 791,530 791,531 794,530 "/>
 </g>
</svg>
